<svg xmlns="http://www.w3.org/2000/svg" xmlns:xlink="http://www.w3.org/1999/xlink" width="500" zoomAndPan="magnify" viewBox="0 0 375 374.999991" height="500" preserveAspectRatio="xMidYMid meet" version="1.0"><defs><g/><clipPath id="1f290c3707"><path d="M 133 240 L 140 240 L 140 244.832031 L 133 244.832031 Z M 133 240 " clip-rule="nonzero"/></clipPath><clipPath id="98860edb29"><path d="M 200 142 L 215.554688 142 L 215.554688 172 L 200 172 Z M 200 142 " clip-rule="nonzero"/></clipPath><clipPath id="0316038ccc"><path d="M 101 109.832031 L 196 109.832031 L 196 230 L 101 230 Z M 101 109.832031 " clip-rule="nonzero"/></clipPath></defs><g clip-path="url(#1f290c3707)"><path fill="#f6f6e9" d="M 139.1875 242.5625 L 139.1875 240.316406 L 133.855469 240.316406 L 133.855469 242.5625 L 136.523438 244.667969 L 139.1875 242.5625 " fill-opacity="1" fill-rule="nonzero"/></g><path fill="#f6f6e9" d="M 133.855469 231.617188 L 133.855469 238.351562 L 139.1875 238.351562 L 139.1875 231.617188 L 133.855469 231.617188 " fill-opacity="1" fill-rule="nonzero"/><g clip-path="url(#98860edb29)"><path fill="#f6f6e9" d="M 206.914062 142.933594 L 200.195312 142.933594 L 200.195312 171.589844 L 206.914062 171.589844 C 211.875 171.589844 215.898438 167.570312 215.898438 162.609375 L 215.898438 151.917969 C 215.898438 146.957031 211.875 142.933594 206.914062 142.933594 " fill-opacity="1" fill-rule="nonzero"/></g><g clip-path="url(#0316038ccc)"><path fill="#f6f6e9" d="M 169.53125 109.832031 L 147.152344 109.832031 C 136.59375 109.832031 128.035156 118.390625 128.035156 128.949219 C 128.035156 139.507812 136.59375 148.066406 147.152344 148.066406 L 163.699219 148.066406 C 168.011719 148.066406 171.503906 151.65625 171.339844 156.007812 C 171.183594 160.144531 167.652344 163.355469 163.511719 163.355469 L 112.988281 163.355469 C 106.273438 163.355469 100.835938 168.917969 101.039062 175.675781 C 101.230469 182.179688 106.738281 187.269531 113.242188 187.269531 L 147.921875 187.269531 C 149.394531 187.269531 150.574219 188.539062 150.429688 190.042969 C 150.300781 191.351562 149.125 192.308594 147.808594 192.308594 L 124.640625 192.308594 C 118.054688 192.308594 112.71875 197.765625 112.914062 204.398438 C 113.105469 210.777344 118.507812 215.773438 124.890625 215.773438 L 132.386719 215.773438 L 132.386719 223.699219 C 132.386719 224.566406 133.023438 225.285156 133.859375 225.410156 L 133.859375 229.65625 L 139.1875 229.65625 L 139.1875 225.40625 C 140.003906 225.265625 140.621094 224.554688 140.621094 223.699219 L 140.621094 207.539062 L 124.640625 207.539062 C 122.5625 207.539062 120.898438 205.714844 121.171875 203.582031 C 121.398438 201.820312 122.984375 200.542969 124.761719 200.542969 L 147.921875 200.542969 C 153.988281 200.542969 158.898438 195.492188 158.667969 189.375 C 158.449219 183.554688 153.480469 179.035156 147.65625 179.035156 L 112.988281 179.035156 C 110.851562 179.035156 109.128906 177.226562 109.277344 175.058594 C 109.40625 173.144531 111.203125 171.589844 113.121094 171.589844 L 163.402344 171.589844 C 172.070312 171.589844 179.367188 164.761719 179.574219 156.09375 C 179.785156 147.164062 172.582031 139.832031 163.699219 139.832031 L 147.152344 139.832031 C 141.140625 139.832031 136.269531 134.957031 136.269531 128.949219 C 136.269531 122.9375 141.140625 118.066406 147.152344 118.066406 L 169.882812 118.066406 C 179.507812 118.066406 187.3125 125.871094 187.3125 135.496094 L 187.3125 171.589844 L 195.546875 171.589844 L 195.546875 135.84375 C 195.546875 121.476562 183.898438 109.832031 169.53125 109.832031 " fill-opacity="1" fill-rule="nonzero"/></g><g fill="#ff914d" fill-opacity="1"><g transform="translate(147.856269, 213.78504)"><g><path d="M 3.640625 -30.5 C 3.640625 -33.46875 5.070312 -34.953125 7.9375 -34.953125 L 22.59375 -34.953125 C 31.394531 -34.953125 35.796875 -30.578125 35.796875 -21.828125 L 35.796875 -10.453125 C 35.796875 -1.515625 31.421875 2.953125 22.671875 2.953125 L 12.390625 2.953125 L 12.390625 10.234375 C 12.390625 13.203125 10.929688 14.6875 8.015625 14.6875 C 5.097656 14.6875 3.640625 13.238281 3.640625 10.34375 Z M 22.59375 -26.171875 L 12.390625 -26.171875 L 12.390625 -5.796875 L 22.59375 -5.796875 C 25.5625 -5.796875 27.046875 -7.300781 27.046875 -10.3125 L 27.046875 -21.9375 C 27.046875 -24.757812 25.5625 -26.171875 22.59375 -26.171875 Z M 22.59375 -26.171875 "/></g></g></g><g fill="#ff914d" fill-opacity="1"><g transform="translate(183.556088, 213.78504)"><g><path d="M 3.640625 -45.1875 C 3.640625 -48.15625 5.070312 -49.640625 7.9375 -49.640625 C 10.90625 -49.640625 12.390625 -48.15625 12.390625 -45.1875 L 12.390625 -8.8125 C 15.359375 -8.8125 16.816406 -7.394531 16.765625 -4.5625 C 16.765625 -1.613281 15.304688 -0.117188 12.390625 -0.078125 L 8.015625 0 C 5.097656 -0.0507812 3.640625 -1.519531 3.640625 -4.40625 Z M 3.640625 -45.1875 "/></g></g></g><g fill="#ff914d" fill-opacity="1"><g transform="translate(200.341629, 213.78504)"><g><path d="M 35.640625 -4.375 C 35.640625 -1.40625 34.21875 0.078125 31.375 0.078125 C 28.382812 0.078125 26.890625 -1.40625 26.890625 -4.375 L 26.890625 -11.625 L 12.421875 -11.65625 L 12.390625 -4.375 C 12.390625 -1.40625 10.929688 0.078125 8.015625 0.078125 C 5.097656 0.078125 3.640625 -1.378906 3.640625 -4.296875 L 3.640625 -24.421875 C 3.640625 -33.359375 8.015625 -37.828125 16.765625 -37.828125 L 31.265625 -37.796875 C 34.179688 -37.796875 35.640625 -36.363281 35.640625 -33.5 Z M 12.390625 -20.40625 L 26.890625 -20.40625 L 26.890625 -29.078125 L 16.84375 -29.078125 C 13.875 -29.078125 12.390625 -27.582031 12.390625 -24.59375 Z M 12.390625 -20.40625 "/></g></g></g><g fill="#ff914d" fill-opacity="1"><g transform="translate(236.041448, 213.78504)"><g><path d="M 31.484375 -34.984375 C 34.359375 -34.984375 35.796875 -33.515625 35.796875 -30.578125 L 35.796875 1.75 C 35.796875 10.351562 31.421875 14.65625 22.671875 14.65625 L 13.5625 14.65625 C 10.789062 14.65625 9.378906 13.195312 9.328125 10.28125 C 9.273438 7.382812 10.660156 5.9375 13.484375 5.9375 L 23.90625 5.9375 C 26 5.988281 27.046875 4.984375 27.046875 2.921875 L 16.765625 2.921875 C 8.015625 2.921875 3.640625 -1.550781 3.640625 -10.5 L 3.640625 -30.609375 C 3.640625 -33.523438 5.097656 -34.984375 8.015625 -34.984375 C 10.929688 -34.984375 12.390625 -33.515625 12.390625 -30.578125 L 12.390625 -10.34375 C 12.390625 -7.332031 13.875 -5.828125 16.84375 -5.828125 L 27.046875 -5.828125 L 27.046875 -30.578125 C 27.046875 -33.515625 28.523438 -34.984375 31.484375 -34.984375 Z M 31.484375 -34.984375 "/></g></g></g><g fill="#f6f6e9" fill-opacity="1"><g transform="translate(165.728418, 236.88772)"><g><path d="M 3.421875 -16.03125 L 16.953125 -16 C 20.648438 -16 22.5 -14.109375 22.5 -10.328125 L 22.5 -1.8125 C 22.5 -0.582031 21.882812 0.03125 20.65625 0.03125 C 19.414062 0.03125 18.796875 -0.59375 18.796875 -1.84375 L 18.796875 -10.40625 C 18.796875 -11.664062 18.171875 -12.296875 16.921875 -12.296875 L 13.84375 -12.296875 L 13.875 -1.8125 C 13.875 -0.582031 13.253906 0.03125 12.015625 0.03125 C 10.785156 0.03125 10.171875 -0.59375 10.171875 -1.84375 L 10.171875 -10.40625 C 10.171875 -11.664062 9.546875 -12.296875 8.296875 -12.296875 L 5.234375 -12.296875 L 5.234375 -1.859375 C 5.234375 -0.617188 4.609375 0 3.359375 0 C 2.148438 0 1.546875 -0.617188 1.546875 -1.859375 L 1.546875 -14.15625 C 1.546875 -15.375 2.171875 -16 3.421875 -16.03125 Z M 3.421875 -16.03125 "/></g></g></g><g fill="#f6f6e9" fill-opacity="1"><g transform="translate(187.841813, 236.88772)"><g><path d="M 13.3125 -16.046875 C 14.53125 -16.046875 15.140625 -15.414062 15.140625 -14.15625 L 15.140625 -1.8125 C 15.140625 -0.601562 14.519531 0 13.28125 0 L 7.09375 -0.015625 C 3.394531 -0.015625 1.546875 -1.90625 1.546875 -5.6875 L 1.546875 -14.1875 C 1.546875 -15.425781 2.160156 -16.046875 3.390625 -16.046875 C 4.617188 -16.046875 5.234375 -15.414062 5.234375 -14.15625 L 5.234375 -5.609375 C 5.234375 -4.347656 5.863281 -3.71875 7.125 -3.71875 L 11.4375 -3.71875 L 11.4375 -14.15625 C 11.4375 -15.414062 12.0625 -16.046875 13.3125 -16.046875 Z M 13.3125 -16.046875 "/></g></g></g><g fill="#f6f6e9" fill-opacity="1"><g transform="translate(202.589483, 236.88772)"><g><path d="M 13.875 -14.15625 C 13.863281 -12.945312 13.257812 -12.328125 12.0625 -12.296875 L 7.125 -12.296875 C 5.863281 -12.296875 5.234375 -11.878906 5.234375 -11.046875 C 5.234375 -10.253906 5.867188 -9.859375 7.140625 -9.859375 L 8.34375 -9.859375 C 12.03125 -9.796875 13.863281 -8.15625 13.84375 -4.9375 C 13.832031 -1.664062 12 -0.0195312 8.34375 0 L 3.34375 -0.015625 C 2.164062 -0.00390625 1.566406 -0.566406 1.546875 -1.703125 C 1.566406 -2.992188 2.160156 -3.644531 3.328125 -3.65625 L 8.3125 -3.65625 C 9.539062 -3.65625 10.160156 -4.070312 10.171875 -4.90625 C 10.171875 -5.726562 9.566406 -6.144531 8.359375 -6.15625 L 7.15625 -6.15625 C 3.4375 -6.132812 1.578125 -7.789062 1.578125 -11.125 C 1.566406 -14.375 3.40625 -16 7.09375 -16 L 12.015625 -16 C 13.253906 -16 13.875 -15.382812 13.875 -14.15625 Z M 13.875 -14.15625 "/></g></g></g><g fill="#f6f6e9" fill-opacity="1"><g transform="translate(216.088993, 236.88772)"><g><path d="M 7.125 -1.875 C 7.125 -0.625 6.507812 0 5.28125 0 C 4.039062 0 3.421875 -0.625 3.421875 -1.875 L 3.421875 -12.296875 C 2.171875 -12.296875 1.554688 -12.894531 1.578125 -14.09375 C 1.578125 -15.351562 2.191406 -15.988281 3.421875 -16 L 5.265625 -16.03125 C 6.503906 -16.019531 7.125 -15.394531 7.125 -14.15625 Z M 5.15625 -20.9375 C 5.476562 -20.957031 5.78125 -20.882812 6.0625 -20.71875 C 6.34375 -20.550781 6.570312 -20.320312 6.75 -20.03125 C 6.9375 -19.75 7.019531 -19.441406 7 -19.109375 C 7.007812 -18.796875 6.925781 -18.492188 6.75 -18.203125 C 6.570312 -17.921875 6.34375 -17.695312 6.0625 -17.53125 C 5.78125 -17.363281 5.476562 -17.285156 5.15625 -17.296875 C 4.84375 -17.285156 4.546875 -17.363281 4.265625 -17.53125 C 3.984375 -17.695312 3.753906 -17.921875 3.578125 -18.203125 C 3.398438 -18.492188 3.316406 -18.796875 3.328125 -19.109375 C 3.316406 -19.441406 3.398438 -19.75 3.578125 -20.03125 C 3.753906 -20.320312 3.984375 -20.550781 4.265625 -20.71875 C 4.554688 -20.882812 4.851562 -20.957031 5.15625 -20.9375 Z M 5.15625 -20.9375 "/></g></g></g><g fill="#f6f6e9" fill-opacity="1"><g transform="translate(222.839153, 236.88772)"><g><path d="M 13.3125 -3.65625 C 14.53125 -3.65625 15.140625 -3.03125 15.140625 -1.78125 C 15.140625 -0.570312 14.519531 0.03125 13.28125 0.03125 L 7.09375 0.03125 C 3.394531 0.03125 1.546875 -1.859375 1.546875 -5.640625 L 1.546875 -10.40625 C 1.546875 -14.132812 3.394531 -16 7.09375 -16 L 13.171875 -16 C 14.472656 -16.019531 15.125 -15.40625 15.125 -14.15625 C 15.101562 -12.945312 14.46875 -12.335938 13.21875 -12.328125 L 7.046875 -12.328125 C 5.835938 -12.328125 5.234375 -11.679688 5.234375 -10.390625 L 5.234375 -5.546875 C 5.234375 -4.296875 5.863281 -3.671875 7.125 -3.671875 Z M 13.3125 -3.65625 "/></g></g></g></svg>