<svg xmlns="http://www.w3.org/2000/svg" xmlns:xlink="http://www.w3.org/1999/xlink" width="500" zoomAndPan="magnify" viewBox="0 0 375 374.999991" height="500" preserveAspectRatio="xMidYMid meet" version="1.0"><defs><g/><clipPath id="def818da1d"><path d="M 133.496094 106.667969 L 241.496094 106.667969 L 241.496094 228.917969 L 133.496094 228.917969 Z M 133.496094 106.667969 " clip-rule="nonzero"/></clipPath><clipPath id="aa98222e50"><path d="M 169.515625 109.785156 C 175.035156 107.902344 181.347656 106.667969 187.523438 106.667969 C 193.703125 106.667969 199.648438 107.726562 205.125 109.609375 C 205.242188 109.667969 205.359375 109.667969 205.476562 109.726562 C 226.050781 117.257812 241.203125 137.148438 241.496094 160.148438 L 241.496094 228.695312 L 133.496094 228.695312 L 133.496094 160.199219 C 133.785156 137.03125 148.707031 117.140625 169.515625 109.785156 Z M 169.515625 109.785156 " clip-rule="nonzero"/></clipPath><clipPath id="74dfb49b3d"><path d="M 150.058594 164.421875 L 227.398438 164.421875 L 227.398438 251.910156 L 150.058594 251.910156 Z M 150.058594 164.421875 " clip-rule="nonzero"/></clipPath><clipPath id="c1bad78b13"><path d="M 107.203125 184.492188 L 129.136719 184.492188 L 129.136719 228.699219 L 107.203125 228.699219 Z M 107.203125 184.492188 " clip-rule="nonzero"/></clipPath><clipPath id="fd12372df6"><path d="M 108.5625 213.976562 C 107.792969 211.722656 107.289062 209.140625 107.289062 206.617188 C 107.289062 204.09375 107.722656 201.664062 108.492188 199.421875 C 108.515625 199.375 108.515625 199.328125 108.539062 199.28125 C 111.617188 190.871094 119.746094 184.679688 128.523438 184.558594 L 129.136719 184.558594 L 129.136719 228.699219 L 128.523438 228.699219 C 119.699219 228.582031 111.570312 222.480469 108.5625 213.976562 Z M 108.5625 213.976562 " clip-rule="nonzero"/></clipPath><clipPath id="e20bc9896d"><path d="M 246 184.566406 L 267.933594 184.566406 L 267.933594 228.777344 L 246 228.777344 Z M 246 184.566406 " clip-rule="nonzero"/></clipPath><clipPath id="a099ad93c9"><path d="M 266.574219 199.289062 C 267.34375 201.542969 267.847656 204.125 267.847656 206.648438 C 267.847656 209.175781 267.414062 211.605469 266.644531 213.84375 C 266.621094 213.890625 266.621094 213.9375 266.597656 213.984375 C 263.519531 222.394531 255.390625 228.589844 246.613281 228.707031 L 246 228.707031 L 246 184.566406 L 246.613281 184.566406 C 255.4375 184.6875 263.566406 190.785156 266.574219 199.289062 Z M 266.574219 199.289062 " clip-rule="nonzero"/></clipPath></defs><g clip-path="url(#def818da1d)"><g clip-path="url(#aa98222e50)"><path stroke-linecap="butt" transform="matrix(0.75, 0, 0, 0.75, 133.494869, 106.667988)" fill="none" stroke-linejoin="miter" d="M 48.027674 4.156224 C 55.387049 1.645807 63.803716 -0.0000259273 72.038091 -0.0000259273 C 80.277674 -0.0000259273 88.204758 1.411432 95.506841 3.921849 C 95.663091 3.999974 95.819341 3.999974 95.975591 4.078099 C 123.407883 14.119766 143.611008 40.640599 144.001633 71.307266 L 144.001633 162.703099 L 0.00163255 162.703099 L 0.00163255 71.374974 C 0.387049 40.484349 20.282883 13.963516 48.027674 4.156224 Z M 48.027674 4.156224 " stroke="#ff0000" stroke-width="10" stroke-opacity="1" stroke-miterlimit="4"/></g></g><g clip-path="url(#74dfb49b3d)"><path fill="#000000" d="M 150.058594 164.421875 L 227.398438 164.421875 L 227.398438 252.03125 L 150.058594 252.03125 Z M 150.058594 164.421875 " fill-opacity="1" fill-rule="nonzero"/></g><g clip-path="url(#c1bad78b13)"><g clip-path="url(#fd12372df6)"><path fill="#ff0000" d="M 107.289062 228.699219 L 107.289062 184.574219 L 129.136719 184.574219 L 129.136719 228.699219 Z M 107.289062 228.699219 " fill-opacity="1" fill-rule="nonzero"/></g></g><g fill="#ff0000" fill-opacity="1"><g transform="translate(142.403345, 227.563343)"><g><path d="M 7.640625 0 L 10.796875 -72.3125 L 18.4375 -72.3125 L 46.65625 -9.46875 L 74.96875 -72.3125 L 82.609375 -72.3125 L 85.25 0 L 77.921875 0 L 75.6875 -57.25 L 49.703125 0 L 43.09375 0 L 17.515625 -57.046875 L 14.96875 0 Z M 7.640625 0 "/></g></g></g><g fill="#ff0000" fill-opacity="1"><g transform="translate(92.896244, 245.832332)"><g><path d="M 0.140625 0 L 4.3125 -10.5 L 6.640625 -10.5 L 10.8125 0 L 8.265625 0 L 7.5625 -1.8125 L 3.390625 -1.8125 L 2.6875 0 Z M 4 -3.6875 L 6.953125 -3.6875 L 5.46875 -7.53125 Z M 4 -3.6875 "/></g></g></g><g fill="#ff0000" fill-opacity="1"><g transform="translate(106.951236, 245.832332)"><g><path d="M 1.265625 0 L 1.265625 -10.5 L 5.421875 -10.5 C 6.523438 -10.5 7.488281 -10.28125 8.3125 -9.84375 C 9.144531 -9.40625 9.789062 -8.789062 10.25 -8 C 10.71875 -7.207031 10.953125 -6.289062 10.953125 -5.25 C 10.953125 -4.195312 10.71875 -3.273438 10.25 -2.484375 C 9.789062 -1.703125 9.144531 -1.09375 8.3125 -0.65625 C 7.488281 -0.21875 6.523438 0 5.421875 0 Z M 3.640625 -2.1875 L 5.375 -2.1875 C 5.988281 -2.1875 6.53125 -2.3125 7 -2.5625 C 7.46875 -2.820312 7.832031 -3.179688 8.09375 -3.640625 C 8.363281 -4.097656 8.5 -4.632812 8.5 -5.25 C 8.5 -5.875 8.363281 -6.410156 8.09375 -6.859375 C 7.832031 -7.316406 7.460938 -7.671875 6.984375 -7.921875 C 6.515625 -8.179688 5.96875 -8.3125 5.34375 -8.3125 L 3.640625 -8.3125 Z M 3.640625 -2.1875 "/></g></g></g><g fill="#ff0000" fill-opacity="1"><g transform="translate(121.636225, 245.832332)"><g><path d="M 6.234375 0.203125 C 5.148438 0.203125 4.179688 -0.0234375 3.328125 -0.484375 C 2.484375 -0.953125 1.820312 -1.59375 1.34375 -2.40625 C 0.875 -3.226562 0.640625 -4.175781 0.640625 -5.25 C 0.640625 -6.320312 0.875 -7.265625 1.34375 -8.078125 C 1.820312 -8.898438 2.484375 -9.539062 3.328125 -10 C 4.179688 -10.46875 5.148438 -10.703125 6.234375 -10.703125 C 7.335938 -10.703125 8.304688 -10.46875 9.140625 -10 C 9.984375 -9.539062 10.644531 -8.898438 11.125 -8.078125 C 11.601562 -7.265625 11.84375 -6.320312 11.84375 -5.25 C 11.84375 -4.175781 11.601562 -3.226562 11.125 -2.40625 C 10.644531 -1.59375 9.984375 -0.953125 9.140625 -0.484375 C 8.304688 -0.0234375 7.335938 0.203125 6.234375 0.203125 Z M 3.078125 -5.25 C 3.078125 -4.625 3.210938 -4.066406 3.484375 -3.578125 C 3.753906 -3.097656 4.125 -2.722656 4.59375 -2.453125 C 5.070312 -2.191406 5.617188 -2.0625 6.234375 -2.0625 C 6.867188 -2.0625 7.421875 -2.191406 7.890625 -2.453125 C 8.367188 -2.722656 8.738281 -3.097656 9 -3.578125 C 9.269531 -4.066406 9.40625 -4.625 9.40625 -5.25 C 9.40625 -5.875 9.269531 -6.425781 9 -6.90625 C 8.738281 -7.394531 8.367188 -7.769531 7.890625 -8.03125 C 7.421875 -8.300781 6.867188 -8.4375 6.234375 -8.4375 C 5.617188 -8.4375 5.070312 -8.300781 4.59375 -8.03125 C 4.125 -7.769531 3.753906 -7.394531 3.484375 -6.90625 C 3.210938 -6.425781 3.078125 -5.875 3.078125 -5.25 Z M 3.078125 -5.25 "/></g></g></g><g fill="#ff0000" fill-opacity="1"><g transform="translate(137.236215, 245.832332)"><g><path d="M 1.265625 0 L 1.265625 -10.5 L 5.75 -10.5 C 6.539062 -10.5 7.234375 -10.351562 7.828125 -10.0625 C 8.421875 -9.769531 8.875 -9.351562 9.1875 -8.8125 C 9.507812 -8.28125 9.671875 -7.640625 9.671875 -6.890625 C 9.671875 -6.117188 9.492188 -5.453125 9.140625 -4.890625 C 8.796875 -4.335938 8.3125 -3.921875 7.6875 -3.640625 L 9.859375 0 L 7.09375 0 L 5.21875 -3.265625 L 3.640625 -3.265625 L 3.640625 0 Z M 3.609375 -5.28125 L 5.4375 -5.28125 C 6.019531 -5.28125 6.46875 -5.414062 6.78125 -5.6875 C 7.101562 -5.96875 7.265625 -6.363281 7.265625 -6.875 C 7.265625 -7.382812 7.101562 -7.773438 6.78125 -8.046875 C 6.46875 -8.316406 6.019531 -8.453125 5.4375 -8.453125 L 3.609375 -8.453125 Z M 3.609375 -5.28125 "/></g></g></g><g fill="#ff0000" fill-opacity="1"><g transform="translate(150.901203, 245.832332)"><g><path d="M 0.140625 0 L 4.3125 -10.5 L 6.640625 -10.5 L 10.8125 0 L 8.265625 0 L 7.5625 -1.8125 L 3.390625 -1.8125 L 2.6875 0 Z M 4 -3.6875 L 6.953125 -3.6875 L 5.46875 -7.53125 Z M 4 -3.6875 "/></g></g></g><g fill="#ff0000" fill-opacity="1"><g transform="translate(164.956195, 245.832332)"><g/></g></g><g fill="#ff0000" fill-opacity="1"><g transform="translate(171.586192, 245.832332)"><g><path d="M 1.265625 0 L 1.265625 -10.5 L 3.28125 -10.5 L 7.015625 -5.0625 L 10.734375 -10.5 L 12.75 -10.5 L 12.75 0 L 10.375 0 L 10.375 -6.3125 L 7.828125 -2.59375 L 6.1875 -2.59375 L 3.625 -6.328125 L 3.625 0 Z M 1.265625 0 "/></g></g></g><g fill="#ff0000" fill-opacity="1"><g transform="translate(188.701173, 245.832332)"><g><path d="M 6.234375 0.203125 C 5.148438 0.203125 4.179688 -0.0234375 3.328125 -0.484375 C 2.484375 -0.953125 1.820312 -1.59375 1.34375 -2.40625 C 0.875 -3.226562 0.640625 -4.175781 0.640625 -5.25 C 0.640625 -6.320312 0.875 -7.265625 1.34375 -8.078125 C 1.820312 -8.898438 2.484375 -9.539062 3.328125 -10 C 4.179688 -10.46875 5.148438 -10.703125 6.234375 -10.703125 C 7.335938 -10.703125 8.304688 -10.46875 9.140625 -10 C 9.984375 -9.539062 10.644531 -8.898438 11.125 -8.078125 C 11.601562 -7.265625 11.84375 -6.320312 11.84375 -5.25 C 11.84375 -4.175781 11.601562 -3.226562 11.125 -2.40625 C 10.644531 -1.59375 9.984375 -0.953125 9.140625 -0.484375 C 8.304688 -0.0234375 7.335938 0.203125 6.234375 0.203125 Z M 3.078125 -5.25 C 3.078125 -4.625 3.210938 -4.066406 3.484375 -3.578125 C 3.753906 -3.097656 4.125 -2.722656 4.59375 -2.453125 C 5.070312 -2.191406 5.617188 -2.0625 6.234375 -2.0625 C 6.867188 -2.0625 7.421875 -2.191406 7.890625 -2.453125 C 8.367188 -2.722656 8.738281 -3.097656 9 -3.578125 C 9.269531 -4.066406 9.40625 -4.625 9.40625 -5.25 C 9.40625 -5.875 9.269531 -6.425781 9 -6.90625 C 8.738281 -7.394531 8.367188 -7.769531 7.890625 -8.03125 C 7.421875 -8.300781 6.867188 -8.4375 6.234375 -8.4375 C 5.617188 -8.4375 5.070312 -8.300781 4.59375 -8.03125 C 4.125 -7.769531 3.753906 -7.394531 3.484375 -6.90625 C 3.210938 -6.425781 3.078125 -5.875 3.078125 -5.25 Z M 3.078125 -5.25 "/></g></g></g><g fill="#ff0000" fill-opacity="1"><g transform="translate(204.301163, 245.832332)"><g><path d="M 1.265625 0 L 1.265625 -10.5 L 3.28125 -10.5 L 7.921875 -4.109375 L 7.921875 -10.5 L 10.296875 -10.5 L 10.296875 0 L 8.265625 0 L 3.625 -6.4375 L 3.625 0 Z M 1.265625 0 "/></g></g></g><g fill="#ff0000" fill-opacity="1"><g transform="translate(218.956146, 245.832332)"><g><path d="M 3.78125 0 L 3.78125 -8.265625 L 0.453125 -8.265625 L 0.453125 -10.5 L 9.5 -10.5 L 9.5 -8.265625 L 6.171875 -8.265625 L 6.171875 0 Z M 3.78125 0 "/></g></g></g><g fill="#ff0000" fill-opacity="1"><g transform="translate(232.006141, 245.832332)"><g><path d="M 1.265625 0 L 1.265625 -10.5 L 3.28125 -10.5 L 7.015625 -5.0625 L 10.734375 -10.5 L 12.75 -10.5 L 12.75 0 L 10.375 0 L 10.375 -6.3125 L 7.828125 -2.59375 L 6.1875 -2.59375 L 3.625 -6.328125 L 3.625 0 Z M 1.265625 0 "/></g></g></g><g fill="#ff0000" fill-opacity="1"><g transform="translate(249.121122, 245.832332)"><g><path d="M 1.265625 0 L 1.265625 -10.5 L 3.640625 -10.5 L 3.640625 0 Z M 1.265625 0 "/></g></g></g><g fill="#ff0000" fill-opacity="1"><g transform="translate(257.131116, 245.832332)"><g><path d="M 1.265625 0 L 1.265625 -10.5 L 3.28125 -10.5 L 7.921875 -4.109375 L 7.921875 -10.5 L 10.296875 -10.5 L 10.296875 0 L 8.265625 0 L 3.625 -6.4375 L 3.625 0 Z M 1.265625 0 "/></g></g></g><g fill="#ff0000" fill-opacity="1"><g transform="translate(271.786099, 245.832332)"><g><path d="M 4 0 L 4 -3.671875 L 0.140625 -10.5 L 2.84375 -10.5 L 4.15625 -8.0625 L 5.203125 -6.171875 L 6.234375 -8.0625 L 7.53125 -10.5 L 10.25 -10.5 L 6.390625 -3.703125 L 6.390625 0 Z M 4 0 "/></g></g></g><g fill="#ff0000" fill-opacity="1"><g transform="translate(126.95569, 260.482308)"><g><path d="M 1.125 0 L 1.125 -7.703125 L 4.0625 -7.703125 C 4.59375 -7.703125 5.054688 -7.597656 5.453125 -7.390625 C 5.847656 -7.191406 6.15625 -6.910156 6.375 -6.546875 C 6.59375 -6.179688 6.703125 -5.738281 6.703125 -5.21875 C 6.703125 -4.601562 6.539062 -4.085938 6.21875 -3.671875 C 5.894531 -3.265625 5.453125 -2.992188 4.890625 -2.859375 L 6.828125 0 L 5.671875 0 L 3.78125 -2.765625 L 2.09375 -2.765625 L 2.09375 0 Z M 2.09375 -3.6875 L 3.953125 -3.6875 C 4.515625 -3.6875 4.945312 -3.816406 5.25 -4.078125 C 5.5625 -4.347656 5.71875 -4.726562 5.71875 -5.21875 C 5.71875 -5.71875 5.5625 -6.101562 5.25 -6.375 C 4.945312 -6.644531 4.515625 -6.78125 3.953125 -6.78125 L 2.09375 -6.78125 Z M 2.09375 -3.6875 "/></g></g></g><g fill="#ff0000" fill-opacity="1"><g transform="translate(136.718416, 260.482308)"><g><path d="M 1.125 0 L 1.125 -7.703125 L 5.796875 -7.703125 L 5.796875 -6.796875 L 2.09375 -6.796875 L 2.09375 -4.359375 L 5.515625 -4.359375 L 5.515625 -3.46875 L 2.09375 -3.46875 L 2.09375 -0.90625 L 5.921875 -0.90625 L 5.921875 0 Z M 1.125 0 "/></g></g></g><g fill="#ff0000" fill-opacity="1"><g transform="translate(145.623752, 260.482308)"><g><path d="M 4.53125 0.140625 C 3.96875 0.140625 3.445312 0.0390625 2.96875 -0.15625 C 2.488281 -0.351562 2.070312 -0.628906 1.71875 -0.984375 C 1.375 -1.335938 1.109375 -1.757812 0.921875 -2.25 C 0.734375 -2.738281 0.640625 -3.269531 0.640625 -3.84375 C 0.640625 -4.425781 0.734375 -4.960938 0.921875 -5.453125 C 1.109375 -5.941406 1.375 -6.363281 1.71875 -6.71875 C 2.070312 -7.070312 2.488281 -7.347656 2.96875 -7.546875 C 3.445312 -7.742188 3.96875 -7.84375 4.53125 -7.84375 C 5.132812 -7.84375 5.691406 -7.726562 6.203125 -7.5 C 6.710938 -7.28125 7.148438 -6.960938 7.515625 -6.546875 C 7.878906 -6.128906 8.144531 -5.640625 8.3125 -5.078125 L 7.28125 -5.078125 C 7.082031 -5.640625 6.738281 -6.078125 6.25 -6.390625 C 5.757812 -6.710938 5.195312 -6.875 4.5625 -6.875 C 3.988281 -6.875 3.484375 -6.742188 3.046875 -6.484375 C 2.609375 -6.234375 2.257812 -5.878906 2 -5.421875 C 1.75 -4.960938 1.625 -4.4375 1.625 -3.84375 C 1.625 -3.25 1.75 -2.722656 2 -2.265625 C 2.257812 -1.816406 2.609375 -1.460938 3.046875 -1.203125 C 3.484375 -0.953125 3.988281 -0.828125 4.5625 -0.828125 C 5.21875 -0.828125 5.796875 -0.992188 6.296875 -1.328125 C 6.804688 -1.671875 7.160156 -2.128906 7.359375 -2.703125 L 8.375 -2.703125 C 8.226562 -2.128906 7.96875 -1.628906 7.59375 -1.203125 C 7.226562 -0.785156 6.78125 -0.457031 6.25 -0.21875 C 5.726562 0.0195312 5.15625 0.140625 4.53125 0.140625 Z M 4.53125 0.140625 "/></g></g></g><g fill="#ff0000" fill-opacity="1"><g transform="translate(156.870435, 260.482308)"><g><path d="M 4.625 0.140625 C 3.84375 0.140625 3.148438 -0.0234375 2.546875 -0.359375 C 1.953125 -0.703125 1.484375 -1.175781 1.140625 -1.78125 C 0.804688 -2.382812 0.640625 -3.070312 0.640625 -3.84375 C 0.640625 -4.632812 0.804688 -5.328125 1.140625 -5.921875 C 1.484375 -6.515625 1.953125 -6.984375 2.546875 -7.328125 C 3.148438 -7.671875 3.84375 -7.84375 4.625 -7.84375 C 5.40625 -7.84375 6.09375 -7.671875 6.6875 -7.328125 C 7.289062 -6.984375 7.757812 -6.515625 8.09375 -5.921875 C 8.4375 -5.328125 8.609375 -4.632812 8.609375 -3.84375 C 8.609375 -3.070312 8.4375 -2.382812 8.09375 -1.78125 C 7.757812 -1.175781 7.289062 -0.703125 6.6875 -0.359375 C 6.09375 -0.0234375 5.40625 0.140625 4.625 0.140625 Z M 1.625 -3.84375 C 1.625 -3.25 1.75 -2.722656 2 -2.265625 C 2.257812 -1.816406 2.613281 -1.460938 3.0625 -1.203125 C 3.507812 -0.953125 4.03125 -0.828125 4.625 -0.828125 C 5.21875 -0.828125 5.738281 -0.953125 6.1875 -1.203125 C 6.632812 -1.460938 6.984375 -1.816406 7.234375 -2.265625 C 7.484375 -2.722656 7.609375 -3.25 7.609375 -3.84375 C 7.609375 -4.445312 7.484375 -4.972656 7.234375 -5.421875 C 6.984375 -5.878906 6.632812 -6.234375 6.1875 -6.484375 C 5.738281 -6.742188 5.21875 -6.875 4.625 -6.875 C 4.03125 -6.875 3.507812 -6.742188 3.0625 -6.484375 C 2.613281 -6.234375 2.257812 -5.878906 2 -5.421875 C 1.75 -4.972656 1.625 -4.445312 1.625 -3.84375 Z M 1.625 -3.84375 "/></g></g></g><g fill="#ff0000" fill-opacity="1"><g transform="translate(168.380925, 260.482308)"><g><path d="M 1.125 0 L 1.125 -7.703125 L 4.0625 -7.703125 C 4.59375 -7.703125 5.054688 -7.597656 5.453125 -7.390625 C 5.847656 -7.191406 6.15625 -6.910156 6.375 -6.546875 C 6.59375 -6.179688 6.703125 -5.738281 6.703125 -5.21875 C 6.703125 -4.601562 6.539062 -4.085938 6.21875 -3.671875 C 5.894531 -3.265625 5.453125 -2.992188 4.890625 -2.859375 L 6.828125 0 L 5.671875 0 L 3.78125 -2.765625 L 2.09375 -2.765625 L 2.09375 0 Z M 2.09375 -3.6875 L 3.953125 -3.6875 C 4.515625 -3.6875 4.945312 -3.816406 5.25 -4.078125 C 5.5625 -4.347656 5.71875 -4.726562 5.71875 -5.21875 C 5.71875 -5.71875 5.5625 -6.101562 5.25 -6.375 C 4.945312 -6.644531 4.515625 -6.78125 3.953125 -6.78125 L 2.09375 -6.78125 Z M 2.09375 -3.6875 "/></g></g></g><g fill="#ff0000" fill-opacity="1"><g transform="translate(178.14365, 260.482308)"><g><path d="M 1.125 0 L 1.125 -7.703125 L 3.78125 -7.703125 C 4.570312 -7.703125 5.265625 -7.535156 5.859375 -7.203125 C 6.453125 -6.878906 6.910156 -6.429688 7.234375 -5.859375 C 7.566406 -5.285156 7.734375 -4.613281 7.734375 -3.84375 C 7.734375 -3.09375 7.566406 -2.425781 7.234375 -1.84375 C 6.910156 -1.269531 6.453125 -0.816406 5.859375 -0.484375 C 5.265625 -0.160156 4.570312 0 3.78125 0 Z M 2.09375 -0.921875 L 3.78125 -0.921875 C 4.363281 -0.921875 4.878906 -1.039062 5.328125 -1.28125 C 5.773438 -1.53125 6.125 -1.875 6.375 -2.3125 C 6.625 -2.757812 6.75 -3.269531 6.75 -3.84375 C 6.75 -4.4375 6.617188 -4.945312 6.359375 -5.375 C 6.109375 -5.8125 5.757812 -6.15625 5.3125 -6.40625 C 4.863281 -6.65625 4.335938 -6.78125 3.734375 -6.78125 L 2.09375 -6.78125 Z M 2.09375 -0.921875 "/></g></g></g><g fill="#ff0000" fill-opacity="1"><g transform="translate(188.78575, 260.482308)"><g/></g></g><g fill="#ff0000" fill-opacity="1"><g transform="translate(193.788844, 260.482308)"><g><path d="M 3.6875 0.140625 C 3.070312 0.140625 2.535156 0.0351562 2.078125 -0.171875 C 1.628906 -0.378906 1.28125 -0.671875 1.03125 -1.046875 C 0.789062 -1.421875 0.664062 -1.859375 0.65625 -2.359375 L 1.625 -2.359375 C 1.644531 -1.867188 1.84375 -1.484375 2.21875 -1.203125 C 2.59375 -0.921875 3.082031 -0.78125 3.6875 -0.78125 C 4.226562 -0.78125 4.65625 -0.882812 4.96875 -1.09375 C 5.289062 -1.3125 5.453125 -1.609375 5.453125 -1.984375 C 5.453125 -2.347656 5.296875 -2.632812 4.984375 -2.84375 C 4.679688 -3.0625 4.179688 -3.253906 3.484375 -3.421875 C 2.535156 -3.648438 1.84375 -3.941406 1.40625 -4.296875 C 0.96875 -4.648438 0.75 -5.125 0.75 -5.71875 C 0.75 -6.375 0.992188 -6.890625 1.484375 -7.265625 C 1.984375 -7.648438 2.65625 -7.84375 3.5 -7.84375 C 4.363281 -7.84375 5.046875 -7.625 5.546875 -7.1875 C 6.046875 -6.757812 6.300781 -6.171875 6.3125 -5.421875 L 5.359375 -5.421875 C 5.347656 -5.878906 5.175781 -6.242188 4.84375 -6.515625 C 4.507812 -6.785156 4.0625 -6.921875 3.5 -6.921875 C 2.945312 -6.921875 2.515625 -6.8125 2.203125 -6.59375 C 1.890625 -6.375 1.734375 -6.082031 1.734375 -5.71875 C 1.734375 -5.40625 1.878906 -5.140625 2.171875 -4.921875 C 2.460938 -4.703125 2.984375 -4.503906 3.734375 -4.328125 C 4.710938 -4.078125 5.410156 -3.769531 5.828125 -3.40625 C 6.242188 -3.050781 6.453125 -2.59375 6.453125 -2.03125 C 6.453125 -1.351562 6.203125 -0.820312 5.703125 -0.4375 C 5.203125 -0.0507812 4.53125 0.140625 3.6875 0.140625 Z M 3.6875 0.140625 "/></g></g></g><g fill="#ff0000" fill-opacity="1"><g transform="translate(203.177839, 260.482308)"><g><path d="M 2.984375 0 L 2.984375 -6.78125 L 0.375 -6.78125 L 0.375 -7.703125 L 6.546875 -7.703125 L 6.546875 -6.78125 L 3.953125 -6.78125 L 3.953125 0 Z M 2.984375 0 "/></g></g></g><g fill="#ff0000" fill-opacity="1"><g transform="translate(212.379964, 260.482308)"><g><path d="M 4 0.125 C 3.070312 0.125 2.34375 -0.160156 1.8125 -0.734375 C 1.289062 -1.316406 1.03125 -2.117188 1.03125 -3.140625 L 1.03125 -7.703125 L 1.984375 -7.703125 L 1.984375 -3.203125 C 1.984375 -2.421875 2.15625 -1.828125 2.5 -1.421875 C 2.851562 -1.015625 3.351562 -0.8125 4 -0.8125 C 5.34375 -0.8125 6.015625 -1.609375 6.015625 -3.203125 L 6.015625 -7.703125 L 6.984375 -7.703125 L 6.984375 -3.140625 C 6.984375 -2.117188 6.71875 -1.316406 6.1875 -0.734375 C 5.664062 -0.160156 4.9375 0.125 4 0.125 Z M 4 0.125 "/></g></g></g><g fill="#ff0000" fill-opacity="1"><g transform="translate(222.670319, 260.482308)"><g><path d="M 1.125 0 L 1.125 -7.703125 L 3.78125 -7.703125 C 4.570312 -7.703125 5.265625 -7.535156 5.859375 -7.203125 C 6.453125 -6.878906 6.910156 -6.429688 7.234375 -5.859375 C 7.566406 -5.285156 7.734375 -4.613281 7.734375 -3.84375 C 7.734375 -3.09375 7.566406 -2.425781 7.234375 -1.84375 C 6.910156 -1.269531 6.453125 -0.816406 5.859375 -0.484375 C 5.265625 -0.160156 4.570312 0 3.78125 0 Z M 2.09375 -0.921875 L 3.78125 -0.921875 C 4.363281 -0.921875 4.878906 -1.039062 5.328125 -1.28125 C 5.773438 -1.53125 6.125 -1.875 6.375 -2.3125 C 6.625 -2.757812 6.75 -3.269531 6.75 -3.84375 C 6.75 -4.4375 6.617188 -4.945312 6.359375 -5.375 C 6.109375 -5.8125 5.757812 -6.15625 5.3125 -6.40625 C 4.863281 -6.65625 4.335938 -6.78125 3.734375 -6.78125 L 2.09375 -6.78125 Z M 2.09375 -0.921875 "/></g></g></g><g fill="#ff0000" fill-opacity="1"><g transform="translate(233.312426, 260.482308)"><g><path d="M 1.125 0 L 1.125 -7.703125 L 2.09375 -7.703125 L 2.09375 0 Z M 1.125 0 "/></g></g></g><g fill="#ff0000" fill-opacity="1"><g transform="translate(238.799181, 260.482308)"><g><path d="M 4.625 0.140625 C 3.84375 0.140625 3.148438 -0.0234375 2.546875 -0.359375 C 1.953125 -0.703125 1.484375 -1.175781 1.140625 -1.78125 C 0.804688 -2.382812 0.640625 -3.070312 0.640625 -3.84375 C 0.640625 -4.632812 0.804688 -5.328125 1.140625 -5.921875 C 1.484375 -6.515625 1.953125 -6.984375 2.546875 -7.328125 C 3.148438 -7.671875 3.84375 -7.84375 4.625 -7.84375 C 5.40625 -7.84375 6.09375 -7.671875 6.6875 -7.328125 C 7.289062 -6.984375 7.757812 -6.515625 8.09375 -5.921875 C 8.4375 -5.328125 8.609375 -4.632812 8.609375 -3.84375 C 8.609375 -3.070312 8.4375 -2.382812 8.09375 -1.78125 C 7.757812 -1.175781 7.289062 -0.703125 6.6875 -0.359375 C 6.09375 -0.0234375 5.40625 0.140625 4.625 0.140625 Z M 1.625 -3.84375 C 1.625 -3.25 1.75 -2.722656 2 -2.265625 C 2.257812 -1.816406 2.613281 -1.460938 3.0625 -1.203125 C 3.507812 -0.953125 4.03125 -0.828125 4.625 -0.828125 C 5.21875 -0.828125 5.738281 -0.953125 6.1875 -1.203125 C 6.632812 -1.460938 6.984375 -1.816406 7.234375 -2.265625 C 7.484375 -2.722656 7.609375 -3.25 7.609375 -3.84375 C 7.609375 -4.445312 7.484375 -4.972656 7.234375 -5.421875 C 6.984375 -5.878906 6.632812 -6.234375 6.1875 -6.484375 C 5.738281 -6.742188 5.21875 -6.875 4.625 -6.875 C 4.03125 -6.875 3.507812 -6.742188 3.0625 -6.484375 C 2.613281 -6.234375 2.257812 -5.878906 2 -5.421875 C 1.75 -4.972656 1.625 -4.445312 1.625 -3.84375 Z M 1.625 -3.84375 "/></g></g></g><g clip-path="url(#e20bc9896d)"><g clip-path="url(#a099ad93c9)"><path fill="#ff0000" d="M 267.847656 184.566406 L 267.847656 228.691406 L 246 228.691406 L 246 184.566406 Z M 267.847656 184.566406 " fill-opacity="1" fill-rule="nonzero"/></g></g></svg>