<svg xmlns="http://www.w3.org/2000/svg" xmlns:xlink="http://www.w3.org/1999/xlink" width="500" zoomAndPan="magnify" viewBox="0 0 375 374.999991" height="500" preserveAspectRatio="xMidYMid meet" version="1.0"><defs><g/><clipPath id="4d1c470048"><path d="M 152.847656 127.898438 L 221.847656 127.898438 L 221.847656 192 L 152.847656 192 Z M 152.847656 127.898438 " clip-rule="nonzero"/></clipPath><clipPath id="1e38849ddb"><path d="M 155 173 L 175 173 L 175 196.898438 L 155 196.898438 Z M 155 173 " clip-rule="nonzero"/></clipPath><clipPath id="4dfbd56492"><path d="M 200 173 L 220 173 L 220 196.898438 L 200 196.898438 Z M 200 173 " clip-rule="nonzero"/></clipPath><clipPath id="5e3a25608c"><path d="M 174.722656 184 L 176 184 L 176 188 L 174.722656 188 Z M 174.722656 184 " clip-rule="nonzero"/></clipPath><clipPath id="54413a9379"><path d="M 184 173.898438 L 186 173.898438 L 186 197.148438 L 184 197.148438 Z M 184 173.898438 " clip-rule="nonzero"/></clipPath><clipPath id="10975c0dba"><path d="M 199 184 L 200.222656 184 L 200.222656 188 L 199 188 Z M 199 184 " clip-rule="nonzero"/></clipPath><clipPath id="63e00f354a"><path d="M 207.882812 175.570312 L 216.882812 175.570312 L 216.882812 194.320312 L 207.882812 194.320312 Z M 207.882812 175.570312 " clip-rule="nonzero"/></clipPath><clipPath id="7aaa0ef4dd"><path d="M 220.933594 178.515625 L 226.933594 178.515625 L 226.933594 191.265625 L 220.933594 191.265625 Z M 220.933594 178.515625 " clip-rule="nonzero"/></clipPath><clipPath id="4e633230c4"><path d="M 148.0625 178.515625 L 153.78125 178.515625 L 153.78125 191.265625 L 148.0625 191.265625 Z M 148.0625 178.515625 " clip-rule="nonzero"/></clipPath><clipPath id="ebe78863af"><path d="M 158.234375 175.640625 L 166.894531 175.640625 L 166.894531 194.320312 L 158.234375 194.320312 Z M 158.234375 175.640625 " clip-rule="nonzero"/></clipPath></defs><g clip-path="url(#4d1c470048)"><path fill="#ffffff" d="M 187.476562 127.898438 C 168.378906 127.898438 152.847656 143.433594 152.847656 162.527344 L 152.847656 190.796875 C 152.847656 191.1875 153.164062 191.503906 153.550781 191.503906 C 153.941406 191.503906 154.257812 191.1875 154.257812 190.796875 L 154.257812 162.527344 C 154.257812 144.210938 169.160156 129.3125 187.476562 129.3125 C 205.789062 129.3125 220.691406 144.210938 220.691406 162.527344 L 220.691406 190.796875 C 220.691406 191.1875 221.007812 191.503906 221.398438 191.503906 C 221.785156 191.503906 222.105469 191.1875 222.105469 190.796875 L 222.105469 162.527344 C 222.105469 143.433594 206.570312 127.898438 187.476562 127.898438 Z M 187.476562 127.898438 " fill-opacity="1" fill-rule="nonzero"/></g><g clip-path="url(#1e38849ddb)"><path fill="#ffffff" d="M 173.339844 173.128906 L 167.6875 173.128906 C 161.0625 173.128906 155.671875 178.519531 155.671875 185.144531 C 155.671875 191.765625 161.0625 197.15625 167.6875 197.15625 L 173.339844 197.15625 C 173.730469 197.15625 174.046875 196.839844 174.046875 196.449219 L 174.046875 173.835938 C 174.046875 173.445312 173.730469 173.128906 173.339844 173.128906 Z M 172.632812 195.742188 L 167.6875 195.742188 C 161.839844 195.742188 157.085938 190.988281 157.085938 185.144531 C 157.085938 179.296875 161.839844 174.542969 167.6875 174.542969 L 172.632812 174.542969 Z M 172.632812 195.742188 " fill-opacity="1" fill-rule="nonzero"/></g><g clip-path="url(#4dfbd56492)"><path fill="#ffffff" d="M 207.261719 173.128906 L 201.609375 173.128906 C 201.21875 173.128906 200.902344 173.445312 200.902344 173.835938 L 200.902344 196.449219 C 200.902344 196.839844 201.21875 197.15625 201.609375 197.15625 L 207.261719 197.15625 C 213.886719 197.15625 219.277344 191.765625 219.277344 185.144531 C 219.277344 178.519531 213.886719 173.128906 207.261719 173.128906 Z M 207.261719 195.742188 L 202.316406 195.742188 L 202.316406 174.542969 L 207.261719 174.542969 C 213.109375 174.542969 217.863281 179.296875 217.863281 185.144531 C 217.863281 190.988281 213.109375 195.742188 207.261719 195.742188 Z M 207.261719 195.742188 " fill-opacity="1" fill-rule="nonzero"/></g><g clip-path="url(#5e3a25608c)"><path fill="#ffffff" d="M 175.234375 184.097656 C 174.953125 184.097656 174.722656 184.328125 174.722656 184.609375 L 174.722656 186.648438 C 174.722656 186.929688 174.953125 187.160156 175.234375 187.160156 C 175.515625 187.160156 175.742188 186.929688 175.742188 186.648438 L 175.742188 184.609375 C 175.742188 184.328125 175.515625 184.097656 175.234375 184.097656 Z M 175.234375 184.097656 " fill-opacity="1" fill-rule="nonzero"/></g><path fill="#ffffff" d="M 177.273438 182.058594 C 176.992188 182.058594 176.765625 182.289062 176.765625 182.570312 L 176.765625 188.6875 C 176.765625 188.972656 176.992188 189.199219 177.273438 189.199219 C 177.554688 189.199219 177.785156 188.972656 177.785156 188.6875 L 177.785156 182.570312 C 177.785156 182.289062 177.554688 182.058594 177.273438 182.058594 Z M 177.273438 182.058594 " fill-opacity="1" fill-rule="nonzero"/><path fill="#ffffff" d="M 179.3125 183.078125 C 179.03125 183.078125 178.804688 183.308594 178.804688 183.589844 L 178.804688 187.667969 C 178.804688 187.949219 179.03125 188.179688 179.3125 188.179688 C 179.59375 188.179688 179.824219 187.949219 179.824219 187.667969 L 179.824219 183.589844 C 179.824219 183.308594 179.59375 183.078125 179.3125 183.078125 Z M 179.3125 183.078125 " fill-opacity="1" fill-rule="nonzero"/><path fill="#ffffff" d="M 181.355469 179 C 181.074219 179 180.84375 179.226562 180.84375 179.507812 L 180.84375 191.75 C 180.84375 192.03125 181.074219 192.257812 181.355469 192.257812 C 181.636719 192.257812 181.863281 192.03125 181.863281 191.75 L 181.863281 179.507812 C 181.863281 179.226562 181.636719 179 181.355469 179 Z M 181.355469 179 " fill-opacity="1" fill-rule="nonzero"/><path fill="#ffffff" d="M 183.394531 183.078125 C 183.113281 183.078125 182.882812 183.308594 182.882812 183.589844 L 182.882812 187.667969 C 182.882812 187.949219 183.113281 188.179688 183.394531 188.179688 C 183.675781 188.179688 183.902344 187.949219 183.902344 187.667969 L 183.902344 183.589844 C 183.902344 183.308594 183.675781 183.078125 183.394531 183.078125 Z M 183.394531 183.078125 " fill-opacity="1" fill-rule="nonzero"/><g clip-path="url(#54413a9379)"><path fill="#ffffff" d="M 185.433594 173.898438 C 185.152344 173.898438 184.925781 174.128906 184.925781 174.410156 L 184.925781 196.847656 C 184.925781 197.132812 185.152344 197.359375 185.433594 197.359375 C 185.714844 197.359375 185.945312 197.132812 185.945312 196.847656 L 185.945312 174.410156 C 185.945312 174.128906 185.714844 173.898438 185.433594 173.898438 Z M 185.433594 173.898438 " fill-opacity="1" fill-rule="nonzero"/></g><path fill="#ffffff" d="M 187.472656 177.980469 C 187.191406 177.980469 186.964844 178.207031 186.964844 178.488281 L 186.964844 192.769531 C 186.964844 193.050781 187.191406 193.277344 187.472656 193.277344 C 187.753906 193.277344 187.984375 193.050781 187.984375 192.769531 L 187.984375 178.488281 C 187.984375 178.207031 187.753906 177.980469 187.472656 177.980469 Z M 187.472656 177.980469 " fill-opacity="1" fill-rule="nonzero"/><path fill="#ffffff" d="M 189.515625 180.019531 C 189.230469 180.019531 189.003906 180.246094 189.003906 180.527344 L 189.003906 190.730469 C 189.003906 191.011719 189.230469 191.238281 189.515625 191.238281 C 189.796875 191.238281 190.023438 191.011719 190.023438 190.730469 L 190.023438 180.527344 C 190.023438 180.246094 189.796875 180.019531 189.515625 180.019531 Z M 189.515625 180.019531 " fill-opacity="1" fill-rule="nonzero"/><path fill="#ffffff" d="M 191.554688 183.078125 C 191.273438 183.078125 191.042969 183.308594 191.042969 183.589844 L 191.042969 187.667969 C 191.042969 187.949219 191.273438 188.179688 191.554688 188.179688 C 191.835938 188.179688 192.0625 187.949219 192.0625 187.667969 L 192.0625 183.589844 C 192.0625 183.308594 191.835938 183.078125 191.554688 183.078125 Z M 191.554688 183.078125 " fill-opacity="1" fill-rule="nonzero"/><path fill="#ffffff" d="M 193.59375 184.097656 C 193.3125 184.097656 193.085938 184.328125 193.085938 184.609375 L 193.085938 186.648438 C 193.085938 186.929688 193.3125 187.160156 193.59375 187.160156 C 193.875 187.160156 194.105469 186.929688 194.105469 186.648438 L 194.105469 184.609375 C 194.105469 184.328125 193.875 184.097656 193.59375 184.097656 Z M 193.59375 184.097656 " fill-opacity="1" fill-rule="nonzero"/><path fill="#ffffff" d="M 195.632812 180.019531 C 195.351562 180.019531 195.125 180.246094 195.125 180.527344 L 195.125 189.707031 C 195.125 189.992188 195.351562 190.21875 195.632812 190.21875 C 195.917969 190.21875 196.144531 189.992188 196.144531 189.707031 L 196.144531 180.527344 C 196.144531 180.246094 195.917969 180.019531 195.632812 180.019531 Z M 195.632812 180.019531 " fill-opacity="1" fill-rule="nonzero"/><path fill="#ffffff" d="M 197.675781 183.078125 C 197.390625 183.078125 197.164062 183.308594 197.164062 183.589844 L 197.164062 187.667969 C 197.164062 187.949219 197.390625 188.179688 197.675781 188.179688 C 197.957031 188.179688 198.183594 187.949219 198.183594 187.667969 L 198.183594 183.589844 C 198.183594 183.308594 197.957031 183.078125 197.675781 183.078125 Z M 197.675781 183.078125 " fill-opacity="1" fill-rule="nonzero"/><g clip-path="url(#10975c0dba)"><path fill="#ffffff" d="M 199.714844 184.097656 C 199.433594 184.097656 199.203125 184.328125 199.203125 184.609375 L 199.203125 186.648438 C 199.203125 186.929688 199.433594 187.160156 199.714844 187.160156 C 199.996094 187.160156 200.222656 186.929688 200.222656 186.648438 L 200.222656 184.609375 C 200.222656 184.328125 199.996094 184.097656 199.714844 184.097656 Z M 199.714844 184.097656 " fill-opacity="1" fill-rule="nonzero"/></g><g clip-path="url(#63e00f354a)"><path fill="#ffffff" d="M 217.222656 184.980469 C 217.222656 179.824219 213.042969 175.640625 207.882812 175.640625 L 207.882812 194.320312 C 213.042969 194.320312 217.222656 190.140625 217.222656 184.980469 Z M 217.222656 184.980469 " fill-opacity="1" fill-rule="nonzero"/></g><g clip-path="url(#7aaa0ef4dd)"><path fill="#ffffff" d="M 227.214844 184.984375 C 227.214844 181.515625 224.40625 178.703125 220.933594 178.703125 L 220.933594 191.265625 C 224.40625 191.265625 227.214844 188.453125 227.214844 184.984375 Z M 227.214844 184.984375 " fill-opacity="1" fill-rule="nonzero"/></g><g clip-path="url(#4e633230c4)"><path fill="#ffffff" d="M 147.78125 184.984375 C 147.78125 181.515625 150.59375 178.703125 154.0625 178.703125 L 154.0625 191.265625 C 150.59375 191.265625 147.78125 188.453125 147.78125 184.984375 Z M 147.78125 184.984375 " fill-opacity="1" fill-rule="nonzero"/></g><g clip-path="url(#ebe78863af)"><path fill="#ffffff" d="M 157.894531 184.980469 C 157.894531 190.140625 162.074219 194.320312 167.234375 194.320312 L 167.234375 175.640625 C 162.074219 175.640625 157.894531 179.824219 157.894531 184.980469 Z M 157.894531 184.980469 " fill-opacity="1" fill-rule="nonzero"/></g><g fill="#ffffff" fill-opacity="1"><g transform="translate(105.338837, 230.197821)"><g><path d="M 9.03125 0 L 2.03125 0 L 2.03125 -14.9375 L 8.40625 -14.9375 C 9.238281 -14.9375 9.972656 -14.769531 10.609375 -14.4375 C 11.253906 -14.101562 11.757812 -13.640625 12.125 -13.046875 C 12.488281 -12.460938 12.671875 -11.78125 12.671875 -11 C 12.671875 -10.539062 12.582031 -10.101562 12.40625 -9.6875 C 12.226562 -9.28125 11.988281 -8.921875 11.6875 -8.609375 C 11.394531 -8.296875 11.0625 -8.054688 10.6875 -7.890625 C 11.21875 -7.734375 11.695312 -7.476562 12.125 -7.125 C 12.5625 -6.769531 12.90625 -6.34375 13.15625 -5.84375 C 13.40625 -5.34375 13.53125 -4.800781 13.53125 -4.21875 C 13.53125 -3.539062 13.40625 -2.941406 13.15625 -2.421875 C 12.914062 -1.898438 12.582031 -1.457031 12.15625 -1.09375 C 11.738281 -0.738281 11.257812 -0.46875 10.71875 -0.28125 C 10.175781 -0.09375 9.613281 0 9.03125 0 Z M 4 -13.234375 L 4 -8.453125 L 8.328125 -8.453125 C 8.765625 -8.453125 9.160156 -8.554688 9.515625 -8.765625 C 9.878906 -8.984375 10.164062 -9.273438 10.375 -9.640625 C 10.59375 -10.003906 10.703125 -10.410156 10.703125 -10.859375 C 10.703125 -11.304688 10.59375 -11.707031 10.375 -12.0625 C 10.164062 -12.425781 9.878906 -12.710938 9.515625 -12.921875 C 9.160156 -13.128906 8.765625 -13.234375 8.328125 -13.234375 Z M 4 -6.953125 L 4 -1.71875 L 8.875 -1.71875 C 9.375 -1.71875 9.828125 -1.832031 10.234375 -2.0625 C 10.640625 -2.289062 10.957031 -2.601562 11.1875 -3 C 11.414062 -3.394531 11.53125 -3.847656 11.53125 -4.359375 C 11.53125 -4.835938 11.414062 -5.269531 11.1875 -5.65625 C 10.957031 -6.050781 10.644531 -6.363281 10.25 -6.59375 C 9.851562 -6.832031 9.40625 -6.953125 8.90625 -6.953125 Z M 4 -6.953125 "/></g></g></g><g fill="#ffffff" fill-opacity="1"><g transform="translate(127.213555, 230.197821)"><g><path d="M 8.859375 0.296875 C 7.984375 0.296875 7.144531 0.164062 6.34375 -0.09375 C 5.550781 -0.351562 4.820312 -0.71875 4.15625 -1.1875 C 3.488281 -1.664062 2.910156 -2.226562 2.421875 -2.875 C 1.929688 -3.53125 1.550781 -4.242188 1.28125 -5.015625 C 1.019531 -5.796875 0.890625 -6.613281 0.890625 -7.46875 C 0.890625 -8.34375 1.019531 -9.171875 1.28125 -9.953125 C 1.550781 -10.734375 1.929688 -11.445312 2.421875 -12.09375 C 2.910156 -12.738281 3.488281 -13.296875 4.15625 -13.765625 C 4.820312 -14.242188 5.550781 -14.613281 6.34375 -14.875 C 7.144531 -15.132812 7.984375 -15.265625 8.859375 -15.265625 C 9.742188 -15.265625 10.582031 -15.132812 11.375 -14.875 C 12.175781 -14.613281 12.910156 -14.242188 13.578125 -13.765625 C 14.242188 -13.296875 14.820312 -12.738281 15.3125 -12.09375 C 15.800781 -11.445312 16.179688 -10.734375 16.453125 -9.953125 C 16.722656 -9.171875 16.859375 -8.34375 16.859375 -7.46875 C 16.859375 -6.613281 16.722656 -5.796875 16.453125 -5.015625 C 16.179688 -4.242188 15.800781 -3.53125 15.3125 -2.875 C 14.820312 -2.226562 14.242188 -1.664062 13.578125 -1.1875 C 12.910156 -0.71875 12.175781 -0.351562 11.375 -0.09375 C 10.582031 0.164062 9.742188 0.296875 8.859375 0.296875 Z M 8.859375 -1.5 C 9.691406 -1.5 10.472656 -1.648438 11.203125 -1.953125 C 11.941406 -2.253906 12.585938 -2.675781 13.140625 -3.21875 C 13.691406 -3.757812 14.125 -4.390625 14.4375 -5.109375 C 14.75 -5.835938 14.90625 -6.625 14.90625 -7.46875 C 14.90625 -8.320312 14.75 -9.113281 14.4375 -9.84375 C 14.125 -10.570312 13.691406 -11.207031 13.140625 -11.75 C 12.585938 -12.289062 11.941406 -12.710938 11.203125 -13.015625 C 10.472656 -13.316406 9.691406 -13.46875 8.859375 -13.46875 C 8.023438 -13.46875 7.242188 -13.316406 6.515625 -13.015625 C 5.785156 -12.710938 5.144531 -12.289062 4.59375 -11.75 C 4.039062 -11.207031 3.609375 -10.570312 3.296875 -9.84375 C 2.984375 -9.113281 2.828125 -8.320312 2.828125 -7.46875 C 2.828125 -6.625 2.984375 -5.835938 3.296875 -5.109375 C 3.609375 -4.390625 4.039062 -3.757812 4.59375 -3.21875 C 5.144531 -2.675781 5.785156 -2.253906 6.515625 -1.953125 C 7.242188 -1.648438 8.023438 -1.5 8.859375 -1.5 Z M 8.859375 -1.5 "/></g></g></g><g fill="#ffffff" fill-opacity="1"><g transform="translate(152.41366, 230.197821)"><g><path d="M 3.96875 0 L 2.03125 0 L 2.03125 -14.9375 L 8.375 -14.9375 C 9.101562 -14.9375 9.769531 -14.820312 10.375 -14.59375 C 10.976562 -14.375 11.5 -14.054688 11.9375 -13.640625 C 12.382812 -13.222656 12.726562 -12.726562 12.96875 -12.15625 C 13.207031 -11.582031 13.328125 -10.945312 13.328125 -10.25 C 13.328125 -9.507812 13.191406 -8.84375 12.921875 -8.25 C 12.648438 -7.664062 12.269531 -7.171875 11.78125 -6.765625 C 11.289062 -6.367188 10.71875 -6.082031 10.0625 -5.90625 L 13.65625 0 L 11.421875 0 L 8.109375 -5.625 C 8.023438 -5.613281 7.941406 -5.609375 7.859375 -5.609375 C 7.773438 -5.609375 7.695312 -5.609375 7.625 -5.609375 L 3.96875 -5.609375 Z M 3.96875 -13.1875 L 3.96875 -7.265625 L 8.328125 -7.265625 C 8.921875 -7.273438 9.441406 -7.398438 9.890625 -7.640625 C 10.347656 -7.890625 10.710938 -8.238281 10.984375 -8.6875 C 11.253906 -9.132812 11.390625 -9.648438 11.390625 -10.234375 C 11.390625 -10.804688 11.253906 -11.3125 10.984375 -11.75 C 10.710938 -12.195312 10.34375 -12.546875 9.875 -12.796875 C 9.40625 -13.054688 8.878906 -13.1875 8.296875 -13.1875 Z M 3.96875 -13.1875 "/></g></g></g><g fill="#ffffff" fill-opacity="1"><g transform="translate(174.211552, 230.197821)"><g><path d="M 8.671875 0.296875 C 7.796875 0.296875 6.960938 0.164062 6.171875 -0.09375 C 5.390625 -0.351562 4.675781 -0.71875 4.03125 -1.1875 C 3.394531 -1.664062 2.835938 -2.226562 2.359375 -2.875 C 1.890625 -3.53125 1.523438 -4.242188 1.265625 -5.015625 C 1.015625 -5.796875 0.890625 -6.613281 0.890625 -7.46875 C 0.890625 -8.34375 1.015625 -9.171875 1.265625 -9.953125 C 1.523438 -10.734375 1.890625 -11.445312 2.359375 -12.09375 C 2.835938 -12.738281 3.394531 -13.296875 4.03125 -13.765625 C 4.675781 -14.242188 5.390625 -14.613281 6.171875 -14.875 C 6.960938 -15.132812 7.796875 -15.265625 8.671875 -15.265625 C 9.460938 -15.265625 10.234375 -15.148438 10.984375 -14.921875 C 11.742188 -14.703125 12.441406 -14.363281 13.078125 -13.90625 C 13.710938 -13.457031 14.253906 -12.894531 14.703125 -12.21875 C 15.160156 -11.539062 15.484375 -10.753906 15.671875 -9.859375 L 13.6875 -9.859375 C 13.457031 -10.660156 13.097656 -11.328125 12.609375 -11.859375 C 12.117188 -12.398438 11.53125 -12.800781 10.84375 -13.0625 C 10.164062 -13.332031 9.425781 -13.46875 8.625 -13.46875 C 7.8125 -13.46875 7.050781 -13.320312 6.34375 -13.03125 C 5.644531 -12.738281 5.03125 -12.320312 4.5 -11.78125 C 3.976562 -11.25 3.566406 -10.617188 3.265625 -9.890625 C 2.972656 -9.160156 2.828125 -8.351562 2.828125 -7.46875 C 2.828125 -6.59375 2.972656 -5.789062 3.265625 -5.0625 C 3.566406 -4.332031 3.976562 -3.703125 4.5 -3.171875 C 5.03125 -2.640625 5.644531 -2.226562 6.34375 -1.9375 C 7.050781 -1.644531 7.8125 -1.5 8.625 -1.5 C 9.425781 -1.5 10.164062 -1.632812 10.84375 -1.90625 C 11.53125 -2.175781 12.117188 -2.578125 12.609375 -3.109375 C 13.097656 -3.640625 13.453125 -4.304688 13.671875 -5.109375 L 15.671875 -5.109375 C 15.484375 -4.203125 15.164062 -3.410156 14.71875 -2.734375 C 14.269531 -2.054688 13.722656 -1.492188 13.078125 -1.046875 C 12.441406 -0.597656 11.75 -0.257812 11 -0.03125 C 10.25 0.1875 9.472656 0.296875 8.671875 0.296875 Z M 8.671875 0.296875 "/></g></g></g><g fill="#ffffff" fill-opacity="1"><g transform="translate(198.237345, 230.197821)"><g><path d="M 12.046875 0 L 2.03125 0 L 2.03125 -14.9375 L 11.953125 -14.9375 L 11.953125 -13.15625 L 3.96875 -13.15625 L 3.96875 -8.4375 L 10.90625 -8.4375 L 10.90625 -6.765625 L 3.96875 -6.765625 L 3.96875 -1.75 L 12.046875 -1.75 Z M 12.046875 0 "/></g></g></g><g fill="#ffffff" fill-opacity="1"><g transform="translate(218.542654, 230.197821)"><g><path d="M 11.234375 0 L 2.03125 0 L 2.03125 -14.9375 L 3.96875 -14.9375 L 3.96875 -1.75 L 11.234375 -1.75 Z M 11.234375 0 "/></g></g></g><g fill="#ffffff" fill-opacity="1"><g transform="translate(237.673649, 230.197821)"><g><path d="M 11.234375 0 L 2.03125 0 L 2.03125 -14.9375 L 3.96875 -14.9375 L 3.96875 -1.75 L 11.234375 -1.75 Z M 11.234375 0 "/></g></g></g><g fill="#ffffff" fill-opacity="1"><g transform="translate(256.804645, 230.197821)"><g><path d="M 12.046875 0 L 2.03125 0 L 2.03125 -14.9375 L 11.953125 -14.9375 L 11.953125 -13.15625 L 3.96875 -13.15625 L 3.96875 -8.4375 L 10.90625 -8.4375 L 10.90625 -6.765625 L 3.96875 -6.765625 L 3.96875 -1.75 L 12.046875 -1.75 Z M 12.046875 0 "/></g></g></g><g fill="#ffffff" fill-opacity="1"><g transform="translate(116.730741, 244.328264)"><g><path d="M 4.234375 -0.890625 C 4.296875 -0.890625 4.34375 -0.867188 4.375 -0.828125 C 4.414062 -0.796875 4.4375 -0.753906 4.4375 -0.703125 L 4.4375 -0.140625 C 4.4375 -0.0976562 4.421875 -0.0625 4.390625 -0.03125 C 4.359375 -0.0078125 4.320312 0 4.28125 0 L 0.75 0 C 0.644531 0 0.59375 -0.046875 0.59375 -0.140625 L 0.59375 -4.875 C 0.59375 -4.96875 0.644531 -5.015625 0.75 -5.015625 L 4.21875 -5.015625 C 4.257812 -5.015625 4.289062 -5 4.3125 -4.96875 C 4.34375 -4.945312 4.359375 -4.914062 4.359375 -4.875 L 4.359375 -4.28125 C 4.359375 -4.175781 4.3125 -4.125 4.21875 -4.125 L 1.53125 -4.125 L 1.53125 -2.75 L 3.625 -2.75 C 3.6875 -2.75 3.734375 -2.734375 3.765625 -2.703125 C 3.796875 -2.679688 3.8125 -2.644531 3.8125 -2.59375 L 3.8125 -2.046875 C 3.8125 -1.992188 3.796875 -1.953125 3.765625 -1.921875 C 3.734375 -1.898438 3.6875 -1.890625 3.625 -1.890625 L 1.53125 -1.890625 L 1.53125 -0.890625 Z M 4.234375 -0.890625 "/></g></g></g><g fill="#ffffff" fill-opacity="1"><g transform="translate(123.527822, 244.328264)"><g><path d="M 3.796875 -0.8125 C 3.867188 -0.8125 3.90625 -0.773438 3.90625 -0.703125 L 3.90625 -0.109375 C 3.90625 -0.0351562 3.867188 0 3.796875 0 L 0.703125 0 C 0.628906 0 0.59375 -0.0351562 0.59375 -0.109375 L 0.59375 -4.90625 C 0.59375 -4.988281 0.628906 -5.03125 0.703125 -5.03125 L 1.421875 -5.03125 C 1.492188 -5.03125 1.53125 -4.988281 1.53125 -4.90625 L 1.53125 -0.8125 Z M 3.796875 -0.8125 "/></g></g></g><g fill="#ffffff" fill-opacity="1"><g transform="translate(129.591833, 244.328264)"><g><path d="M 4.234375 -0.890625 C 4.296875 -0.890625 4.34375 -0.867188 4.375 -0.828125 C 4.414062 -0.796875 4.4375 -0.753906 4.4375 -0.703125 L 4.4375 -0.140625 C 4.4375 -0.0976562 4.421875 -0.0625 4.390625 -0.03125 C 4.359375 -0.0078125 4.320312 0 4.28125 0 L 0.75 0 C 0.644531 0 0.59375 -0.046875 0.59375 -0.140625 L 0.59375 -4.875 C 0.59375 -4.96875 0.644531 -5.015625 0.75 -5.015625 L 4.21875 -5.015625 C 4.257812 -5.015625 4.289062 -5 4.3125 -4.96875 C 4.34375 -4.945312 4.359375 -4.914062 4.359375 -4.875 L 4.359375 -4.28125 C 4.359375 -4.175781 4.3125 -4.125 4.21875 -4.125 L 1.53125 -4.125 L 1.53125 -2.75 L 3.625 -2.75 C 3.6875 -2.75 3.734375 -2.734375 3.765625 -2.703125 C 3.796875 -2.679688 3.8125 -2.644531 3.8125 -2.59375 L 3.8125 -2.046875 C 3.8125 -1.992188 3.796875 -1.953125 3.765625 -1.921875 C 3.734375 -1.898438 3.6875 -1.890625 3.625 -1.890625 L 1.53125 -1.890625 L 1.53125 -0.890625 Z M 4.234375 -0.890625 "/></g></g></g><g fill="#ffffff" fill-opacity="1"><g transform="translate(136.388915, 244.328264)"><g><path d="M 3.921875 -1.203125 C 3.960938 -1.234375 4.003906 -1.25 4.046875 -1.25 C 4.085938 -1.25 4.117188 -1.234375 4.140625 -1.203125 L 4.515625 -0.625 C 4.535156 -0.601562 4.535156 -0.570312 4.515625 -0.53125 C 4.503906 -0.488281 4.484375 -0.457031 4.453125 -0.4375 C 4.316406 -0.332031 4.160156 -0.238281 3.984375 -0.15625 C 3.816406 -0.0820312 3.640625 -0.0234375 3.453125 0.015625 C 3.273438 0.0546875 3.097656 0.078125 2.921875 0.078125 C 2.628906 0.078125 2.347656 0.0351562 2.078125 -0.046875 C 1.816406 -0.128906 1.578125 -0.25 1.359375 -0.40625 C 1.148438 -0.5625 0.960938 -0.742188 0.796875 -0.953125 C 0.640625 -1.171875 0.515625 -1.410156 0.421875 -1.671875 C 0.335938 -1.929688 0.296875 -2.207031 0.296875 -2.5 C 0.296875 -2.789062 0.335938 -3.066406 0.421875 -3.328125 C 0.515625 -3.585938 0.640625 -3.828125 0.796875 -4.046875 C 0.960938 -4.265625 1.148438 -4.453125 1.359375 -4.609375 C 1.578125 -4.765625 1.816406 -4.882812 2.078125 -4.96875 C 2.347656 -5.050781 2.628906 -5.09375 2.921875 -5.09375 C 3.085938 -5.09375 3.265625 -5.070312 3.453125 -5.03125 C 3.640625 -4.988281 3.820312 -4.925781 4 -4.84375 C 4.175781 -4.769531 4.332031 -4.675781 4.46875 -4.5625 C 4.507812 -4.53125 4.53125 -4.5 4.53125 -4.46875 C 4.539062 -4.4375 4.535156 -4.40625 4.515625 -4.375 L 4.140625 -3.8125 C 4.117188 -3.78125 4.085938 -3.757812 4.046875 -3.75 C 4.003906 -3.75 3.960938 -3.765625 3.921875 -3.796875 C 3.785156 -3.921875 3.628906 -4.015625 3.453125 -4.078125 C 3.273438 -4.140625 3.097656 -4.171875 2.921875 -4.171875 C 2.691406 -4.171875 2.472656 -4.125 2.265625 -4.03125 C 2.054688 -3.945312 1.875 -3.828125 1.71875 -3.671875 C 1.5625 -3.523438 1.441406 -3.347656 1.359375 -3.140625 C 1.273438 -2.941406 1.234375 -2.726562 1.234375 -2.5 C 1.234375 -2.269531 1.273438 -2.054688 1.359375 -1.859375 C 1.453125 -1.660156 1.570312 -1.484375 1.71875 -1.328125 C 1.875 -1.179688 2.054688 -1.066406 2.265625 -0.984375 C 2.472656 -0.898438 2.691406 -0.859375 2.921875 -0.859375 C 3.085938 -0.859375 3.257812 -0.882812 3.4375 -0.9375 C 3.613281 -1 3.773438 -1.085938 3.921875 -1.203125 Z M 3.921875 -1.203125 "/></g></g></g><g fill="#ffffff" fill-opacity="1"><g transform="translate(143.281757, 244.328264)"><g><path d="M 0.1875 -4.34375 L 0.1875 -4.875 C 0.1875 -4.96875 0.238281 -5.015625 0.34375 -5.015625 L 3.78125 -5.015625 C 3.820312 -5.015625 3.851562 -5 3.875 -4.96875 C 3.90625 -4.945312 3.921875 -4.914062 3.921875 -4.875 L 3.921875 -4.34375 C 3.921875 -4.25 3.875 -4.203125 3.78125 -4.203125 L 2.515625 -4.203125 L 2.515625 -0.140625 C 2.515625 -0.046875 2.46875 0 2.375 0 L 1.734375 0 C 1.640625 0 1.59375 -0.046875 1.59375 -0.140625 L 1.59375 -4.203125 L 0.34375 -4.203125 C 0.300781 -4.203125 0.265625 -4.210938 0.234375 -4.234375 C 0.203125 -4.265625 0.1875 -4.300781 0.1875 -4.34375 Z M 0.1875 -4.34375 "/></g></g></g><g fill="#ffffff" fill-opacity="1"><g transform="translate(149.425017, 244.328264)"><g><path d="M 3.75 -1.484375 L 4.421875 -0.171875 C 4.441406 -0.117188 4.441406 -0.078125 4.421875 -0.046875 C 4.410156 -0.015625 4.378906 0 4.328125 0 L 3.59375 0 C 3.5625 0 3.53125 -0.0078125 3.5 -0.03125 C 3.46875 -0.0507812 3.445312 -0.0820312 3.4375 -0.125 L 2.90625 -1.1875 C 2.851562 -1.175781 2.796875 -1.164062 2.734375 -1.15625 C 2.679688 -1.15625 2.625 -1.15625 2.5625 -1.15625 L 1.53125 -1.15625 L 1.53125 -0.140625 C 1.53125 -0.0976562 1.515625 -0.0625 1.484375 -0.03125 C 1.460938 -0.0078125 1.425781 0 1.375 0 L 0.75 0 C 0.707031 0 0.671875 -0.0078125 0.640625 -0.03125 C 0.609375 -0.0625 0.59375 -0.0976562 0.59375 -0.140625 L 0.59375 -4.875 C 0.59375 -4.914062 0.609375 -4.945312 0.640625 -4.96875 C 0.671875 -5 0.707031 -5.015625 0.75 -5.015625 L 0.90625 -5.015625 C 1.007812 -5.015625 1.109375 -5.015625 1.203125 -5.015625 C 1.296875 -5.015625 1.359375 -5.015625 1.390625 -5.015625 L 2.5625 -5.015625 C 2.863281 -5.015625 3.132812 -4.96875 3.375 -4.875 C 3.625 -4.78125 3.835938 -4.644531 4.015625 -4.46875 C 4.203125 -4.289062 4.34375 -4.082031 4.4375 -3.84375 C 4.539062 -3.613281 4.59375 -3.359375 4.59375 -3.078125 C 4.59375 -2.734375 4.515625 -2.421875 4.359375 -2.140625 C 4.210938 -1.867188 4.007812 -1.648438 3.75 -1.484375 Z M 2.515625 -1.9375 C 2.734375 -1.9375 2.929688 -1.984375 3.109375 -2.078125 C 3.285156 -2.179688 3.421875 -2.316406 3.515625 -2.484375 C 3.617188 -2.660156 3.671875 -2.859375 3.671875 -3.078125 C 3.671875 -3.242188 3.640625 -3.394531 3.578125 -3.53125 C 3.515625 -3.664062 3.429688 -3.78125 3.328125 -3.875 C 3.234375 -3.976562 3.113281 -4.054688 2.96875 -4.109375 C 2.832031 -4.171875 2.679688 -4.203125 2.515625 -4.203125 L 1.53125 -4.203125 L 1.53125 -1.9375 Z M 2.515625 -1.9375 "/></g></g></g><g fill="#ffffff" fill-opacity="1"><g transform="translate(156.463152, 244.328264)"><g><path d="M 0.296875 -2.5 C 0.296875 -2.789062 0.335938 -3.066406 0.421875 -3.328125 C 0.515625 -3.585938 0.640625 -3.820312 0.796875 -4.03125 C 0.953125 -4.25 1.132812 -4.4375 1.34375 -4.59375 C 1.5625 -4.757812 1.800781 -4.882812 2.0625 -4.96875 C 2.332031 -5.050781 2.613281 -5.09375 2.90625 -5.09375 C 3.195312 -5.09375 3.472656 -5.050781 3.734375 -4.96875 C 3.992188 -4.882812 4.226562 -4.757812 4.4375 -4.59375 C 4.65625 -4.4375 4.84375 -4.25 5 -4.03125 C 5.164062 -3.820312 5.289062 -3.585938 5.375 -3.328125 C 5.457031 -3.066406 5.5 -2.789062 5.5 -2.5 C 5.5 -2.207031 5.457031 -1.929688 5.375 -1.671875 C 5.289062 -1.410156 5.164062 -1.171875 5 -0.953125 C 4.84375 -0.742188 4.65625 -0.5625 4.4375 -0.40625 C 4.226562 -0.25 3.992188 -0.128906 3.734375 -0.046875 C 3.472656 0.0351562 3.195312 0.078125 2.90625 0.078125 C 2.613281 0.078125 2.332031 0.0351562 2.0625 -0.046875 C 1.800781 -0.128906 1.5625 -0.25 1.34375 -0.40625 C 1.132812 -0.5625 0.953125 -0.742188 0.796875 -0.953125 C 0.640625 -1.171875 0.515625 -1.410156 0.421875 -1.671875 C 0.335938 -1.929688 0.296875 -2.207031 0.296875 -2.5 Z M 1.234375 -2.5 C 1.234375 -2.269531 1.273438 -2.050781 1.359375 -1.84375 C 1.441406 -1.644531 1.554688 -1.472656 1.703125 -1.328125 C 1.859375 -1.179688 2.035156 -1.066406 2.234375 -0.984375 C 2.441406 -0.898438 2.664062 -0.859375 2.90625 -0.859375 C 3.132812 -0.859375 3.347656 -0.898438 3.546875 -0.984375 C 3.753906 -1.066406 3.929688 -1.179688 4.078125 -1.328125 C 4.234375 -1.472656 4.351562 -1.644531 4.4375 -1.84375 C 4.53125 -2.050781 4.578125 -2.269531 4.578125 -2.5 C 4.578125 -2.738281 4.53125 -2.957031 4.4375 -3.15625 C 4.351562 -3.351562 4.234375 -3.523438 4.078125 -3.671875 C 3.929688 -3.828125 3.753906 -3.945312 3.546875 -4.03125 C 3.347656 -4.125 3.132812 -4.171875 2.90625 -4.171875 C 2.664062 -4.171875 2.441406 -4.125 2.234375 -4.03125 C 2.035156 -3.945312 1.859375 -3.828125 1.703125 -3.671875 C 1.554688 -3.523438 1.441406 -3.351562 1.359375 -3.15625 C 1.273438 -2.957031 1.234375 -2.738281 1.234375 -2.5 Z M 1.234375 -2.5 "/></g></g></g><g fill="#ffffff" fill-opacity="1"><g transform="translate(164.290493, 244.328264)"><g><path d="M 4.953125 -5.03125 C 5.023438 -5.03125 5.0625 -4.992188 5.0625 -4.921875 L 5.0625 -0.09375 C 5.0625 -0.0390625 5.046875 -0.00390625 5.015625 0.015625 C 4.992188 0.046875 4.96875 0.0625 4.9375 0.0625 C 4.894531 0.0625 4.859375 0.0507812 4.828125 0.03125 C 4.796875 0.0078125 4.765625 -0.015625 4.734375 -0.046875 L 1.53125 -3.078125 L 1.53125 -0.109375 C 1.53125 -0.0351562 1.492188 0 1.421875 0 L 0.703125 0 C 0.628906 0 0.59375 -0.0351562 0.59375 -0.109375 L 0.59375 -4.9375 C 0.59375 -4.976562 0.601562 -5.007812 0.625 -5.03125 C 0.65625 -5.0625 0.6875 -5.078125 0.71875 -5.078125 L 0.734375 -5.078125 C 0.765625 -5.078125 0.789062 -5.066406 0.8125 -5.046875 C 0.84375 -5.023438 0.878906 -5 0.921875 -4.96875 L 4.140625 -1.921875 L 4.140625 -4.921875 C 4.140625 -4.992188 4.175781 -5.03125 4.25 -5.03125 Z M 4.953125 -5.03125 "/></g></g></g><g fill="#ffffff" fill-opacity="1"><g transform="translate(171.982447, 244.328264)"><g><path d="M 1.53125 -4.90625 L 1.53125 -0.109375 C 1.53125 -0.0351562 1.492188 0 1.421875 0 L 0.703125 0 C 0.628906 0 0.59375 -0.0351562 0.59375 -0.109375 L 0.59375 -4.90625 C 0.59375 -4.988281 0.628906 -5.03125 0.703125 -5.03125 L 1.421875 -5.03125 C 1.492188 -5.03125 1.53125 -4.988281 1.53125 -4.90625 Z M 1.53125 -4.90625 "/></g></g></g><g fill="#ffffff" fill-opacity="1"><g transform="translate(176.137833, 244.328264)"><g><path d="M 3.921875 -1.203125 C 3.960938 -1.234375 4.003906 -1.25 4.046875 -1.25 C 4.085938 -1.25 4.117188 -1.234375 4.140625 -1.203125 L 4.515625 -0.625 C 4.535156 -0.601562 4.535156 -0.570312 4.515625 -0.53125 C 4.503906 -0.488281 4.484375 -0.457031 4.453125 -0.4375 C 4.316406 -0.332031 4.160156 -0.238281 3.984375 -0.15625 C 3.816406 -0.0820312 3.640625 -0.0234375 3.453125 0.015625 C 3.273438 0.0546875 3.097656 0.078125 2.921875 0.078125 C 2.628906 0.078125 2.347656 0.0351562 2.078125 -0.046875 C 1.816406 -0.128906 1.578125 -0.25 1.359375 -0.40625 C 1.148438 -0.5625 0.960938 -0.742188 0.796875 -0.953125 C 0.640625 -1.171875 0.515625 -1.410156 0.421875 -1.671875 C 0.335938 -1.929688 0.296875 -2.207031 0.296875 -2.5 C 0.296875 -2.789062 0.335938 -3.066406 0.421875 -3.328125 C 0.515625 -3.585938 0.640625 -3.828125 0.796875 -4.046875 C 0.960938 -4.265625 1.148438 -4.453125 1.359375 -4.609375 C 1.578125 -4.765625 1.816406 -4.882812 2.078125 -4.96875 C 2.347656 -5.050781 2.628906 -5.09375 2.921875 -5.09375 C 3.085938 -5.09375 3.265625 -5.070312 3.453125 -5.03125 C 3.640625 -4.988281 3.820312 -4.925781 4 -4.84375 C 4.175781 -4.769531 4.332031 -4.675781 4.46875 -4.5625 C 4.507812 -4.53125 4.53125 -4.5 4.53125 -4.46875 C 4.539062 -4.4375 4.535156 -4.40625 4.515625 -4.375 L 4.140625 -3.8125 C 4.117188 -3.78125 4.085938 -3.757812 4.046875 -3.75 C 4.003906 -3.75 3.960938 -3.765625 3.921875 -3.796875 C 3.785156 -3.921875 3.628906 -4.015625 3.453125 -4.078125 C 3.273438 -4.140625 3.097656 -4.171875 2.921875 -4.171875 C 2.691406 -4.171875 2.472656 -4.125 2.265625 -4.03125 C 2.054688 -3.945312 1.875 -3.828125 1.71875 -3.671875 C 1.5625 -3.523438 1.441406 -3.347656 1.359375 -3.140625 C 1.273438 -2.941406 1.234375 -2.726562 1.234375 -2.5 C 1.234375 -2.269531 1.273438 -2.054688 1.359375 -1.859375 C 1.453125 -1.660156 1.570312 -1.484375 1.71875 -1.328125 C 1.875 -1.179688 2.054688 -1.066406 2.265625 -0.984375 C 2.472656 -0.898438 2.691406 -0.859375 2.921875 -0.859375 C 3.085938 -0.859375 3.257812 -0.882812 3.4375 -0.9375 C 3.613281 -1 3.773438 -1.085938 3.921875 -1.203125 Z M 3.921875 -1.203125 "/></g></g></g><g fill="#ffffff" fill-opacity="1"><g transform="translate(183.030674, 244.328264)"><g/></g></g><g fill="#ffffff" fill-opacity="1"><g transform="translate(187.186059, 244.328264)"><g><path d="M 0.59375 -0.140625 L 0.59375 -4.875 C 0.59375 -4.914062 0.609375 -4.945312 0.640625 -4.96875 C 0.671875 -5 0.707031 -5.015625 0.75 -5.015625 L 2.59375 -5.015625 C 2.882812 -5.015625 3.160156 -4.972656 3.421875 -4.890625 C 3.679688 -4.816406 3.914062 -4.703125 4.125 -4.546875 C 4.332031 -4.398438 4.507812 -4.222656 4.65625 -4.015625 C 4.8125 -3.804688 4.929688 -3.570312 5.015625 -3.3125 C 5.097656 -3.0625 5.140625 -2.789062 5.140625 -2.5 C 5.140625 -2.21875 5.097656 -1.945312 5.015625 -1.6875 C 4.929688 -1.4375 4.8125 -1.207031 4.65625 -1 C 4.507812 -0.789062 4.332031 -0.609375 4.125 -0.453125 C 3.914062 -0.304688 3.679688 -0.191406 3.421875 -0.109375 C 3.160156 -0.0351562 2.878906 0 2.578125 0 L 0.75 0 C 0.707031 0 0.671875 -0.0078125 0.640625 -0.03125 C 0.609375 -0.0625 0.59375 -0.0976562 0.59375 -0.140625 Z M 1.53125 -0.890625 L 2.578125 -0.890625 C 2.816406 -0.890625 3.035156 -0.929688 3.234375 -1.015625 C 3.429688 -1.097656 3.597656 -1.210938 3.734375 -1.359375 C 3.878906 -1.503906 3.992188 -1.675781 4.078125 -1.875 C 4.160156 -2.070312 4.203125 -2.28125 4.203125 -2.5 C 4.203125 -2.738281 4.160156 -2.957031 4.078125 -3.15625 C 3.992188 -3.351562 3.878906 -3.523438 3.734375 -3.671875 C 3.597656 -3.816406 3.429688 -3.929688 3.234375 -4.015625 C 3.035156 -4.097656 2.820312 -4.140625 2.59375 -4.140625 L 1.53125 -4.140625 Z M 1.53125 -0.890625 "/></g></g></g><g fill="#ffffff" fill-opacity="1"><g transform="translate(194.64687, 244.328264)"><g><path d="M 4.859375 -0.15625 C 4.878906 -0.113281 4.878906 -0.078125 4.859375 -0.046875 C 4.835938 -0.015625 4.800781 0 4.75 0 L 4.046875 0 C 4.003906 0 3.96875 -0.0078125 3.9375 -0.03125 C 3.90625 -0.0507812 3.882812 -0.0820312 3.875 -0.125 L 3.671875 -0.609375 L 1.359375 -0.609375 L 1.15625 -0.125 C 1.144531 -0.09375 1.125 -0.0625 1.09375 -0.03125 C 1.0625 -0.0078125 1.023438 0 0.984375 0 L 0.28125 0 C 0.226562 0 0.191406 -0.015625 0.171875 -0.046875 C 0.148438 -0.078125 0.148438 -0.117188 0.171875 -0.171875 L 2.3125 -4.953125 C 2.320312 -4.992188 2.34375 -5.023438 2.375 -5.046875 C 2.414062 -5.066406 2.453125 -5.078125 2.484375 -5.078125 L 2.53125 -5.078125 C 2.570312 -5.078125 2.609375 -5.066406 2.640625 -5.046875 C 2.671875 -5.023438 2.695312 -4.992188 2.71875 -4.953125 Z M 1.6875 -1.40625 L 3.34375 -1.40625 L 2.515625 -3.40625 Z M 1.6875 -1.40625 "/></g></g></g><g fill="#ffffff" fill-opacity="1"><g transform="translate(201.704821, 244.328264)"><g><path d="M 4.953125 -5.03125 C 5.023438 -5.03125 5.0625 -4.992188 5.0625 -4.921875 L 5.0625 -0.09375 C 5.0625 -0.0390625 5.046875 -0.00390625 5.015625 0.015625 C 4.992188 0.046875 4.96875 0.0625 4.9375 0.0625 C 4.894531 0.0625 4.859375 0.0507812 4.828125 0.03125 C 4.796875 0.0078125 4.765625 -0.015625 4.734375 -0.046875 L 1.53125 -3.078125 L 1.53125 -0.109375 C 1.53125 -0.0351562 1.492188 0 1.421875 0 L 0.703125 0 C 0.628906 0 0.59375 -0.0351562 0.59375 -0.109375 L 0.59375 -4.9375 C 0.59375 -4.976562 0.601562 -5.007812 0.625 -5.03125 C 0.65625 -5.0625 0.6875 -5.078125 0.71875 -5.078125 L 0.734375 -5.078125 C 0.765625 -5.078125 0.789062 -5.066406 0.8125 -5.046875 C 0.84375 -5.023438 0.878906 -5 0.921875 -4.96875 L 4.140625 -1.921875 L 4.140625 -4.921875 C 4.140625 -4.992188 4.175781 -5.03125 4.25 -5.03125 Z M 4.953125 -5.03125 "/></g></g></g><g fill="#ffffff" fill-opacity="1"><g transform="translate(209.39678, 244.328264)"><g><path d="M 3.921875 -1.203125 C 3.960938 -1.234375 4.003906 -1.25 4.046875 -1.25 C 4.085938 -1.25 4.117188 -1.234375 4.140625 -1.203125 L 4.515625 -0.625 C 4.535156 -0.601562 4.535156 -0.570312 4.515625 -0.53125 C 4.503906 -0.488281 4.484375 -0.457031 4.453125 -0.4375 C 4.316406 -0.332031 4.160156 -0.238281 3.984375 -0.15625 C 3.816406 -0.0820312 3.640625 -0.0234375 3.453125 0.015625 C 3.273438 0.0546875 3.097656 0.078125 2.921875 0.078125 C 2.628906 0.078125 2.347656 0.0351562 2.078125 -0.046875 C 1.816406 -0.128906 1.578125 -0.25 1.359375 -0.40625 C 1.148438 -0.5625 0.960938 -0.742188 0.796875 -0.953125 C 0.640625 -1.171875 0.515625 -1.410156 0.421875 -1.671875 C 0.335938 -1.929688 0.296875 -2.207031 0.296875 -2.5 C 0.296875 -2.789062 0.335938 -3.066406 0.421875 -3.328125 C 0.515625 -3.585938 0.640625 -3.828125 0.796875 -4.046875 C 0.960938 -4.265625 1.148438 -4.453125 1.359375 -4.609375 C 1.578125 -4.765625 1.816406 -4.882812 2.078125 -4.96875 C 2.347656 -5.050781 2.628906 -5.09375 2.921875 -5.09375 C 3.085938 -5.09375 3.265625 -5.070312 3.453125 -5.03125 C 3.640625 -4.988281 3.820312 -4.925781 4 -4.84375 C 4.175781 -4.769531 4.332031 -4.675781 4.46875 -4.5625 C 4.507812 -4.53125 4.53125 -4.5 4.53125 -4.46875 C 4.539062 -4.4375 4.535156 -4.40625 4.515625 -4.375 L 4.140625 -3.8125 C 4.117188 -3.78125 4.085938 -3.757812 4.046875 -3.75 C 4.003906 -3.75 3.960938 -3.765625 3.921875 -3.796875 C 3.785156 -3.921875 3.628906 -4.015625 3.453125 -4.078125 C 3.273438 -4.140625 3.097656 -4.171875 2.921875 -4.171875 C 2.691406 -4.171875 2.472656 -4.125 2.265625 -4.03125 C 2.054688 -3.945312 1.875 -3.828125 1.71875 -3.671875 C 1.5625 -3.523438 1.441406 -3.347656 1.359375 -3.140625 C 1.273438 -2.941406 1.234375 -2.726562 1.234375 -2.5 C 1.234375 -2.269531 1.273438 -2.054688 1.359375 -1.859375 C 1.453125 -1.660156 1.570312 -1.484375 1.71875 -1.328125 C 1.875 -1.179688 2.054688 -1.066406 2.265625 -0.984375 C 2.472656 -0.898438 2.691406 -0.859375 2.921875 -0.859375 C 3.085938 -0.859375 3.257812 -0.882812 3.4375 -0.9375 C 3.613281 -1 3.773438 -1.085938 3.921875 -1.203125 Z M 3.921875 -1.203125 "/></g></g></g><g fill="#ffffff" fill-opacity="1"><g transform="translate(216.289626, 244.328264)"><g><path d="M 4.234375 -0.890625 C 4.296875 -0.890625 4.34375 -0.867188 4.375 -0.828125 C 4.414062 -0.796875 4.4375 -0.753906 4.4375 -0.703125 L 4.4375 -0.140625 C 4.4375 -0.0976562 4.421875 -0.0625 4.390625 -0.03125 C 4.359375 -0.0078125 4.320312 0 4.28125 0 L 0.75 0 C 0.644531 0 0.59375 -0.046875 0.59375 -0.140625 L 0.59375 -4.875 C 0.59375 -4.96875 0.644531 -5.015625 0.75 -5.015625 L 4.21875 -5.015625 C 4.257812 -5.015625 4.289062 -5 4.3125 -4.96875 C 4.34375 -4.945312 4.359375 -4.914062 4.359375 -4.875 L 4.359375 -4.28125 C 4.359375 -4.175781 4.3125 -4.125 4.21875 -4.125 L 1.53125 -4.125 L 1.53125 -2.75 L 3.625 -2.75 C 3.6875 -2.75 3.734375 -2.734375 3.765625 -2.703125 C 3.796875 -2.679688 3.8125 -2.644531 3.8125 -2.59375 L 3.8125 -2.046875 C 3.8125 -1.992188 3.796875 -1.953125 3.765625 -1.921875 C 3.734375 -1.898438 3.6875 -1.890625 3.625 -1.890625 L 1.53125 -1.890625 L 1.53125 -0.890625 Z M 4.234375 -0.890625 "/></g></g></g><g fill="#ffffff" fill-opacity="1"><g transform="translate(223.08671, 244.328264)"><g/></g></g><g fill="#ffffff" fill-opacity="1"><g transform="translate(227.2421, 244.328264)"><g><path d="M 5.96875 -0.15625 C 5.976562 -0.09375 5.96875 -0.0507812 5.9375 -0.03125 C 5.914062 -0.0078125 5.878906 0 5.828125 0 L 5.1875 0 C 5.144531 0 5.109375 -0.0078125 5.078125 -0.03125 C 5.054688 -0.0507812 5.039062 -0.0859375 5.03125 -0.140625 L 4.796875 -2.59375 L 3.3125 -0.0625 C 3.28125 -0.0078125 3.253906 0.0234375 3.234375 0.046875 C 3.210938 0.0664062 3.179688 0.078125 3.140625 0.078125 C 3.097656 0.078125 3.066406 0.0664062 3.046875 0.046875 C 3.035156 0.0234375 3.015625 -0.0078125 2.984375 -0.0625 L 1.5 -2.59375 L 1.25 -0.140625 C 1.238281 -0.0859375 1.222656 -0.0507812 1.203125 -0.03125 C 1.179688 -0.0078125 1.144531 0 1.09375 0 L 0.453125 0 C 0.410156 0 0.375 -0.0078125 0.34375 -0.03125 C 0.3125 -0.0507812 0.300781 -0.09375 0.3125 -0.15625 L 0.796875 -4.96875 C 0.804688 -5.050781 0.847656 -5.09375 0.921875 -5.09375 L 0.9375 -5.09375 C 0.976562 -5.09375 1.003906 -5.082031 1.015625 -5.0625 C 1.035156 -5.039062 1.054688 -5.015625 1.078125 -4.984375 L 3.140625 -1.484375 L 5.203125 -4.984375 C 5.222656 -5.015625 5.238281 -5.039062 5.25 -5.0625 C 5.269531 -5.082031 5.300781 -5.09375 5.34375 -5.09375 L 5.359375 -5.09375 C 5.429688 -5.09375 5.472656 -5.050781 5.484375 -4.96875 Z M 5.96875 -0.15625 "/></g></g></g><g fill="#ffffff" fill-opacity="1"><g transform="translate(235.554857, 244.328264)"><g><path d="M 1.4375 -4.90625 L 1.4375 -2.0625 C 1.4375 -1.882812 1.460938 -1.71875 1.515625 -1.5625 C 1.578125 -1.414062 1.660156 -1.285156 1.765625 -1.171875 C 1.878906 -1.066406 2.003906 -0.984375 2.140625 -0.921875 C 2.285156 -0.859375 2.445312 -0.828125 2.625 -0.828125 C 2.789062 -0.828125 2.945312 -0.859375 3.09375 -0.921875 C 3.238281 -0.984375 3.363281 -1.066406 3.46875 -1.171875 C 3.570312 -1.285156 3.65625 -1.414062 3.71875 -1.5625 C 3.78125 -1.71875 3.8125 -1.882812 3.8125 -2.0625 L 3.8125 -4.90625 C 3.8125 -4.988281 3.847656 -5.03125 3.921875 -5.03125 L 4.609375 -5.03125 C 4.691406 -5.03125 4.734375 -4.988281 4.734375 -4.90625 L 4.734375 -2.046875 C 4.734375 -1.734375 4.679688 -1.445312 4.578125 -1.1875 C 4.484375 -0.925781 4.335938 -0.703125 4.140625 -0.515625 C 3.953125 -0.328125 3.726562 -0.179688 3.46875 -0.078125 C 3.21875 0.0234375 2.9375 0.078125 2.625 0.078125 C 2.3125 0.078125 2.023438 0.0234375 1.765625 -0.078125 C 1.503906 -0.179688 1.28125 -0.328125 1.09375 -0.515625 C 0.90625 -0.710938 0.757812 -0.941406 0.65625 -1.203125 C 0.5625 -1.460938 0.515625 -1.75 0.515625 -2.0625 L 0.515625 -4.90625 C 0.515625 -4.988281 0.550781 -5.03125 0.625 -5.03125 L 1.328125 -5.03125 C 1.398438 -5.03125 1.4375 -4.988281 1.4375 -4.90625 Z M 1.4375 -4.90625 "/></g></g></g><g fill="#ffffff" fill-opacity="1"><g transform="translate(242.830748, 244.328264)"><g><path d="M 2.265625 0.078125 C 2.078125 0.078125 1.890625 0.0546875 1.703125 0.015625 C 1.515625 -0.0234375 1.335938 -0.0820312 1.171875 -0.15625 C 1.003906 -0.226562 0.847656 -0.316406 0.703125 -0.421875 C 0.566406 -0.523438 0.453125 -0.640625 0.359375 -0.765625 C 0.335938 -0.796875 0.328125 -0.828125 0.328125 -0.859375 C 0.335938 -0.898438 0.359375 -0.9375 0.390625 -0.96875 L 0.828125 -1.40625 C 0.859375 -1.4375 0.890625 -1.445312 0.921875 -1.4375 C 0.960938 -1.4375 1.003906 -1.414062 1.046875 -1.375 C 1.148438 -1.269531 1.265625 -1.175781 1.390625 -1.09375 C 1.515625 -1.007812 1.648438 -0.941406 1.796875 -0.890625 C 1.941406 -0.835938 2.085938 -0.8125 2.234375 -0.8125 C 2.515625 -0.8125 2.726562 -0.863281 2.875 -0.96875 C 3.03125 -1.082031 3.109375 -1.238281 3.109375 -1.4375 C 3.109375 -1.550781 3.066406 -1.648438 2.984375 -1.734375 C 2.898438 -1.816406 2.78125 -1.894531 2.625 -1.96875 C 2.46875 -2.039062 2.273438 -2.113281 2.046875 -2.1875 C 1.804688 -2.269531 1.59375 -2.351562 1.40625 -2.4375 C 1.226562 -2.53125 1.070312 -2.632812 0.9375 -2.75 C 0.8125 -2.863281 0.710938 -2.992188 0.640625 -3.140625 C 0.578125 -3.296875 0.546875 -3.476562 0.546875 -3.6875 C 0.546875 -3.96875 0.613281 -4.210938 0.75 -4.421875 C 0.894531 -4.628906 1.09375 -4.789062 1.34375 -4.90625 C 1.601562 -5.03125 1.90625 -5.09375 2.25 -5.09375 C 2.445312 -5.09375 2.632812 -5.066406 2.8125 -5.015625 C 2.988281 -4.972656 3.148438 -4.910156 3.296875 -4.828125 C 3.453125 -4.742188 3.582031 -4.644531 3.6875 -4.53125 C 3.71875 -4.488281 3.734375 -4.445312 3.734375 -4.40625 C 3.734375 -4.363281 3.71875 -4.320312 3.6875 -4.28125 L 3.34375 -3.890625 C 3.300781 -3.828125 3.253906 -3.796875 3.203125 -3.796875 C 3.160156 -3.804688 3.113281 -3.832031 3.0625 -3.875 C 2.945312 -3.976562 2.8125 -4.054688 2.65625 -4.109375 C 2.507812 -4.171875 2.363281 -4.203125 2.21875 -4.203125 C 1.976562 -4.203125 1.789062 -4.148438 1.65625 -4.046875 C 1.519531 -3.953125 1.453125 -3.828125 1.453125 -3.671875 C 1.453125 -3.546875 1.5 -3.4375 1.59375 -3.34375 C 1.6875 -3.257812 1.8125 -3.179688 1.96875 -3.109375 C 2.132812 -3.035156 2.316406 -2.96875 2.515625 -2.90625 C 2.722656 -2.84375 2.914062 -2.769531 3.09375 -2.6875 C 3.28125 -2.613281 3.445312 -2.519531 3.59375 -2.40625 C 3.738281 -2.300781 3.851562 -2.171875 3.9375 -2.015625 C 4.019531 -1.859375 4.0625 -1.671875 4.0625 -1.453125 C 4.0625 -1.210938 4.015625 -1 3.921875 -0.8125 C 3.835938 -0.625 3.71875 -0.460938 3.5625 -0.328125 C 3.40625 -0.191406 3.210938 -0.0859375 2.984375 -0.015625 C 2.765625 0.046875 2.523438 0.078125 2.265625 0.078125 Z M 2.265625 0.078125 "/></g></g></g><g fill="#ffffff" fill-opacity="1"><g transform="translate(249.241485, 244.328264)"><g><path d="M 1.53125 -4.90625 L 1.53125 -0.109375 C 1.53125 -0.0351562 1.492188 0 1.421875 0 L 0.703125 0 C 0.628906 0 0.59375 -0.0351562 0.59375 -0.109375 L 0.59375 -4.90625 C 0.59375 -4.988281 0.628906 -5.03125 0.703125 -5.03125 L 1.421875 -5.03125 C 1.492188 -5.03125 1.53125 -4.988281 1.53125 -4.90625 Z M 1.53125 -4.90625 "/></g></g></g><g fill="#ffffff" fill-opacity="1"><g transform="translate(253.396874, 244.328264)"><g><path d="M 3.921875 -1.203125 C 3.960938 -1.234375 4.003906 -1.25 4.046875 -1.25 C 4.085938 -1.25 4.117188 -1.234375 4.140625 -1.203125 L 4.515625 -0.625 C 4.535156 -0.601562 4.535156 -0.570312 4.515625 -0.53125 C 4.503906 -0.488281 4.484375 -0.457031 4.453125 -0.4375 C 4.316406 -0.332031 4.160156 -0.238281 3.984375 -0.15625 C 3.816406 -0.0820312 3.640625 -0.0234375 3.453125 0.015625 C 3.273438 0.0546875 3.097656 0.078125 2.921875 0.078125 C 2.628906 0.078125 2.347656 0.0351562 2.078125 -0.046875 C 1.816406 -0.128906 1.578125 -0.25 1.359375 -0.40625 C 1.148438 -0.5625 0.960938 -0.742188 0.796875 -0.953125 C 0.640625 -1.171875 0.515625 -1.410156 0.421875 -1.671875 C 0.335938 -1.929688 0.296875 -2.207031 0.296875 -2.5 C 0.296875 -2.789062 0.335938 -3.066406 0.421875 -3.328125 C 0.515625 -3.585938 0.640625 -3.828125 0.796875 -4.046875 C 0.960938 -4.265625 1.148438 -4.453125 1.359375 -4.609375 C 1.578125 -4.765625 1.816406 -4.882812 2.078125 -4.96875 C 2.347656 -5.050781 2.628906 -5.09375 2.921875 -5.09375 C 3.085938 -5.09375 3.265625 -5.070312 3.453125 -5.03125 C 3.640625 -4.988281 3.820312 -4.925781 4 -4.84375 C 4.175781 -4.769531 4.332031 -4.675781 4.46875 -4.5625 C 4.507812 -4.53125 4.53125 -4.5 4.53125 -4.46875 C 4.539062 -4.4375 4.535156 -4.40625 4.515625 -4.375 L 4.140625 -3.8125 C 4.117188 -3.78125 4.085938 -3.757812 4.046875 -3.75 C 4.003906 -3.75 3.960938 -3.765625 3.921875 -3.796875 C 3.785156 -3.921875 3.628906 -4.015625 3.453125 -4.078125 C 3.273438 -4.140625 3.097656 -4.171875 2.921875 -4.171875 C 2.691406 -4.171875 2.472656 -4.125 2.265625 -4.03125 C 2.054688 -3.945312 1.875 -3.828125 1.71875 -3.671875 C 1.5625 -3.523438 1.441406 -3.347656 1.359375 -3.140625 C 1.273438 -2.941406 1.234375 -2.726562 1.234375 -2.5 C 1.234375 -2.269531 1.273438 -2.054688 1.359375 -1.859375 C 1.453125 -1.660156 1.570312 -1.484375 1.71875 -1.328125 C 1.875 -1.179688 2.054688 -1.066406 2.265625 -0.984375 C 2.472656 -0.898438 2.691406 -0.859375 2.921875 -0.859375 C 3.085938 -0.859375 3.257812 -0.882812 3.4375 -0.9375 C 3.613281 -1 3.773438 -1.085938 3.921875 -1.203125 Z M 3.921875 -1.203125 "/></g></g></g></svg>